<svg xmlns="http://www.w3.org/2000/svg" width="39.998" height="39.998" viewBox="0 0 39.998 39.998">
    <defs>
        <style>
            .cls-1{fill:#232c3c}
        </style>
    </defs>
    <g id="_06-cart" transform="translate(-6 -6)">
        <g id="linear_color" transform="translate(6 6)">
            <path id="Path_24649" d="M43.918 6H8.08A2.082 2.082 0 0 0 6 8.08v28.159a2.082 2.082 0 0 0 2.08 2.08h14.133l-.544 4.354a19.079 19.079 0 0 0-3.793 1.86.8.8 0 0 0 .443 1.467h15.36a.8.8 0 0 0 .444-1.466 19.078 19.078 0 0 0-3.793-1.86l-.544-4.354h14.132A2.082 2.082 0 0 0 46 36.239V8.08A2.082 2.082 0 0 0 43.918 6zM8.08 7.6h35.838a.48.48 0 0 1 .48.48v22.239H7.6V8.08a.48.48 0 0 1 .48-.48zm14.079 36.8h-.522A12.043 12.043 0 0 1 26 43.438a12.043 12.043 0 0 1 4.357.96zm6.5-2.227a10.761 10.761 0 0 0-5.311 0l.481-3.853h4.347zM44.4 36.239a.48.48 0 0 1-.48.48H8.08a.48.48 0 0 1-.48-.48v-4.32h36.8z" class="cls-1" transform="translate(-6 -6)"/>
            <path id="Path_24650" d="M230.8 351.6h2.56a.8.8 0 0 0 0-1.6h-2.56a.8.8 0 0 0 0 1.6z" class="cls-1" transform="translate(-212.081 -322.481)"/>
            <path id="Path_24651" d="M94.8 55.6h1.983l3.658 10.972a.8.8 0 0 0 .119.227 2.083 2.083 0 1 0 1.106.32h6.677c-.015.158-.023.318-.023.48a5.04 5.04 0 1 0 5.04-5.04c-.159 0-.316.008-.471.023l1.23-3.69a.8.8 0 0 0-.759-1.053h-10.24a.8.8 0 0 0 0 1.6h9.13l-.748 2.243H104.4a.8.8 0 0 0 0 1.6h6.367a5.072 5.072 0 0 0-2 2.24h-6.994l-3.654-10.975A.8.8 0 0 0 97.36 54H94.8a.8.8 0 1 0 0 1.6zm5.76 13.759a.48.48 0 1 1 .48-.48.48.48 0 0 1-.48.48zM116.8 67.6a3.44 3.44 0 1 1-3.44-3.44 3.44 3.44 0 0 1 3.44 3.44z" class="cls-1" transform="translate(-86.96 -50.16)"/>
            <path id="Path_24652" d="M310.448 200.792l1.28.64a.8.8 0 0 0 1.023-.272l1.28-1.92a.8.8 0 1 0-1.331-.888l-.888 1.332-.648-.324a.8.8 0 1 0-.715 1.431z" class="cls-1" transform="translate(-285.686 -182.637)"/>
        </g>
    </g>
</svg>
