<svg xmlns="http://www.w3.org/2000/svg" width="53.291" height="40.54" viewBox="0 0 53.291 40.54">
    <g fill="#232c3c">
        <path stroke="#fff" stroke-miterlimit="10" stroke-width="0.5px" d="M-4333.076-4592.929a3.2 3.2 0 0 1-.072-.684c-.015-1.259.06-2.526-.043-3.777a9.621 9.621 0 0 0-5.783-8.289 9.131 9.131 0 0 0-4.037-.882c-4.1 0-8.2-.018-12.295.007a9.914 9.914 0 0 0-9.057 6.249 9.876 9.876 0 0 0-.676 3.728c.011 1.042.006 2.084-.007 3.125a1.39 1.39 0 0 1-1.042 1.483 1.379 1.379 0 0 1-1.662-.886 1.66 1.66 0 0 1-.086-.5c.014-1.454-.054-2.915.078-4.358a12.294 12.294 0 0 1 6.769-10.171 11.981 11.981 0 0 1 5.864-1.437c2.013.005 4.025 0 6.038 0 1.977 0 3.952.02 5.928 0a12.725 12.725 0 0 1 12.04 8.332 13.05 13.05 0 0 1 .77 4.307c.014 1.078.006 2.156-.006 3.234a1.4 1.4 0 0 1-1.046 1.481 1.257 1.257 0 0 1-.354.05 1.365 1.365 0 0 1-1.321-1.012zm-15.982-19.126a9.924 9.924 0 0 1-10.021-9.841 9.947 9.947 0 0 1 10.1-10.023 9.969 9.969 0 0 1 9.885 9.988 9.974 9.974 0 0 1-9.914 9.876zm-7.251-10.038a7.176 7.176 0 0 0 7.214 7.266 7.178 7.178 0 0 0 7.215-7.124 7.237 7.237 0 0 0-7.11-7.206h-.1a7.218 7.218 0 0 0-7.219 7.064z" transform="translate(-347.752 -286.75) translate(4715.841 4918.919)"/>
        <path d="M-4341.843-4602.677a2.365 2.365 0 0 1-.053-.513c-.012-.945.045-1.895-.034-2.833a7.213 7.213 0 0 0-4.323-6.216 6.808 6.808 0 0 0-3.019-.663c-3.064 0-2.128-.014-5.194.006-2.965.018-2.224-1.462-2.022-1.648s.605-.43 2.157-.427h.515c1.478 0 2.956.015 4.434 0a9.516 9.516 0 0 1 9 6.249 9.817 9.817 0 0 1 .575 3.229c.012.809.006 1.618 0 2.426a1.049 1.049 0 0 1-.782 1.111.956.956 0 0 1-.266.038 1.021 1.021 0 0 1-.988-.759zm-11.952-14.345a7.429 7.429 0 0 1-7.493-7.38 7.448 7.448 0 0 1 7.549-7.517 7.468 7.468 0 0 1 7.394 7.49 7.47 7.47 0 0 1-7.414 7.407zm-5.42-7.528a5.373 5.373 0 0 0 5.394 5.451 5.376 5.376 0 0 0 5.4-5.344 5.419 5.419 0 0 0-5.317-5.4h-.073a5.4 5.4 0 0 0-5.405 5.294z" transform="translate(-347.752 -286.75) translate(4740.841 4925.919)"/>
    </g>
</svg>
