<?xml version="1.0" encoding="UTF-8" standalone="no"?>
<svg
  xmlnsDc="http://purl.org/dc/elements/1.1/"
  xmlnsCc="http://creativecommons.org/ns#"
  xmlnsRdf="http://www.w3.org/1999/02/22-rdf-syntax-ns#"
  xmlnsSvg="http://www.w3.org/2000/svg"
  xmlns="http://www.w3.org/2000/svg"
  xmlnsSodipodi="http://sodipodi.sourceforge.net/DTD/sodipodi-0.dtd"
  xmlnsInkscape="http://www.inkscape.org/namespaces/inkscape"
  version="1.1"
  id="svg2"
  xmlSpace="preserve"
  width="7680"
  height="4320"
  viewBox="0 0 7680 4320"
  sodipodiDocname="404.svg"
>
  <metadata id="metadata8">
    <rdfRDF
      ><ccWork rdfAbout=""
        ><dcFormat>image/svg+xml</dcFormat
        ><dcType
          rdfResource="http://purl.org/dc/dcmitype/StillImage" /></ccWork
    ></rdfRDF>
  </metadata>
  <defs id="defs6" />
  <sodipodiNamedview
    pagecolor="#ffffff"
    bordercolor="#666666"
    borderopacity="1"
    objecttolerance="10"
    gridtolerance="10"
    guidetolerance="10"
    inkscapePageopacity="0"
    inkscapePageshadow="2"
    inkscapeWindow-width="640"
    inkscapeWindow-height="480"
    id="namedview4"
  />
  <g
    id="g10"
    inkscapeGroupmode="layer"
    inkscapelabel="ink_ext_XXXXXX"
    transform="matrix(1.3333333,0,0,-1.3333333,0,4320)"
  >
    <g id="g12" transform="scale(0.1)">
      <path
        d="m 10947.1,19313.4 c 887.5,1458.8 963.2,3248.6 1353.2,4911 390,1662.4 1337,3435.4 3002,3814.1 1887.1,429.3 3689.7,-1127 5624.9,-1136.1 1397.8,-6.6 2651.7,785.9 3918.2,1377.4 2118.9,989.6 4478.5,1459.2 6814.9,1356.3 1127.1,-49.6 2338.6,-276.1 3108.5,-1100.7 449.6,-481.6 697.8,-1116.8 1103,-1636.3 1133.8,-1453.8 3242.6,-1717.3 5069.5,-1469.1 1826.9,248.2 3619.4,887.5 5460.4,788.1 1841,-99.3 3836.5,-1267.3 4012.5,-3102.6 122.4,-1276.7 -656.4,-2457.8 -1495.3,-3427.9 -839,-970.1 -1803.6,-1904.2 -2187.7,-3127.9 -866.1,-2759.6 1541.7,-5569.9 1320,-8453.8 -174,-2263.6 -2026.7,-4155.4 -4173.1,-4895.1 -2146.3,-739.7 -4517.1,-500.5 -6707.6,95.9 -2190.5,596.4 -4273.2,1534.2 -6442.7,2203 -2169.4,668.8 -4498.2,1064.7 -6707.5,542.2 C 21888.6,5547.8 19999,4220.3 17836.1,3874 c -1561,-250 -3199.8,57.3 -4578.4,826.2 -1603.3,894.3 -2339.9,2238.1 -3243.1,3752.3 -617.69,1035.5 -1541.52,1787.2 -2222.89,2763.3 -714.23,1023.3 -760.08,2376.8 -391.36,3547.7 600.02,1905.5 2545.25,2903.9 3546.75,4549.9"
        style="fill: #2917bf10; fill-opacity: 1; fill-rule: nonzero; stroke: none"
        id="path16"
      />
      <path
        d="m 45725.1,12673.9 c 0,-488.4 -8208.4,-884.3 -18334.1,-884.3 -10125.7,0 -18334.18,395.9 -18334.18,884.3 0,488.4 8208.48,884.3 18334.18,884.3 10125.7,0 18334.1,-395.9 18334.1,-884.3"
        style="fill: #ffa299; fill-opacity: 1; fill-rule: nonzero; stroke: none"
        id="path18"
      />
      <path
        d="m 26121.3,25363 c 41.4,24 74.1,57.9 98.2,101.8 24,43.7 36.1,94 36.1,150.8 0,56.8 -12.1,107.1 -36.1,150.9 -24.1,43.8 -56.8,77.7 -98.2,101.8 -41.4,24.1 -87.6,36.1 -138.6,36.1 -51,0 -97.2,-12 -138.6,-36.1 -41.4,-24.1 -74.1,-58 -98.2,-101.8 -24.1,-43.8 -36.1,-94.1 -36.1,-150.9 0,-56.8 12,-107.1 36.1,-150.8 24.1,-43.9 56.8,-77.8 98.2,-101.8 41.4,-24.1 87.6,-36.1 138.6,-36.1 51,0 97.2,12 138.6,36.1 z m -426.6,-205.1 c -85.2,45.3 -152.2,107.8 -200.7,187.7 -48.6,79.9 -72.9,169.9 -72.9,270 0,100.1 24.3,190.1 72.9,270 48.5,79.9 115.5,142.5 200.7,187.7 85.1,45.3 181.2,67.9 288,67.9 106.8,0 202.9,-22.6 288.1,-67.9 85.1,-45.2 152,-107.8 200.6,-187.7 48.6,-79.9 72.9,-169.9 72.9,-270 0,-100.1 -24.3,-190.1 -72.9,-270 -48.6,-79.9 -115.5,-142.4 -200.6,-187.7 -85.2,-45.2 -181.3,-67.8 -288.1,-67.8 -106.8,0 -202.9,22.6 -288,67.8"
        style="fill: #000000; fill-opacity: 1; fill-rule: nonzero; stroke: none"
        id="path20"
      />
      <path
        d="m 27342.8,25363 c 41.3,24 74.1,57.9 98.2,101.8 24,43.7 36,94 36,150.8 0,56.8 -12,107.1 -36,150.9 -24.1,43.8 -56.9,77.7 -98.2,101.8 -41.4,24.1 -87.6,36.1 -138.6,36.1 -51.1,0 -97.3,-12 -138.6,-36.1 -41.4,-24.1 -74.2,-58 -98.2,-101.8 -24.1,-43.8 -36.1,-94.1 -36.1,-150.9 0,-56.8 12,-107.1 36.1,-150.8 24,-43.9 56.8,-77.8 98.2,-101.8 41.3,-24.1 87.5,-36.1 138.6,-36.1 51,0 97.2,12 138.6,36.1 z m -426.7,-205.1 c -85.2,45.3 -152.1,107.8 -200.7,187.7 -48.6,79.9 -72.9,169.9 -72.9,270 0,100.1 24.3,190.1 72.9,270 48.6,79.9 115.5,142.5 200.7,187.7 85.2,45.3 181.2,67.9 288.1,67.9 106.8,0 202.8,-22.6 288,-67.9 85.2,-45.2 152.1,-107.8 200.7,-187.7 48.6,-79.9 72.9,-169.9 72.9,-270 0,-100.1 -24.3,-190.1 -72.9,-270 -48.6,-79.9 -115.5,-142.4 -200.7,-187.7 -85.2,-45.2 -181.2,-67.8 -288,-67.8 -106.9,0 -202.9,22.6 -288.1,67.8"
        style="fill: #000000; fill-opacity: 1; fill-rule: nonzero; stroke: none"
        id="path22"
      />
      <path
        d="m 28493.5,25638 c 29.8,25.5 44.8,61.8 44.8,109 0,47.2 -15,83.7 -44.8,109.7 -29.8,26 -74.1,39 -132.8,39 h -158.9 v -296 h 158.9 c 58.7,0 103,12.8 132.8,38.3 z m 122.7,437.5 c 67.4,-30.3 119.4,-73.7 156,-130 36.5,-56.3 54.8,-122.5 54.8,-198.5 0,-76 -18.3,-142 -54.8,-197.8 -36.6,-55.8 -88.6,-98.9 -156,-129.2 -67.4,-30.4 -146.8,-45.5 -238.2,-45.5 h -176.2 v -264.2 H 27916 V 26121 h 462 c 91.4,0 170.8,-15.2 238.2,-45.5"
        style="fill: #000000; fill-opacity: 1; fill-rule: nonzero; stroke: none"
        id="path24"
      />
      <path
        d="m 29097,25120.4 c -77,20.2 -139.5,47.1 -187.7,80.9 l 93.9,210.8 c 45.2,-29.9 97.7,-54 157.4,-72.2 59.6,-18.3 118.4,-27.5 176.1,-27.5 109.8,0 164.6,27.5 164.6,82.3 0,28.9 -15.7,50.3 -46.9,64.3 -31.3,13.9 -81.6,28.6 -150.9,44 -76.1,16.3 -139.6,33.9 -190.6,52.7 -51,18.8 -94.8,48.9 -131.4,90.2 -36.6,41.4 -54.8,97.3 -54.8,167.5 0,61.6 16.8,117.2 50.5,166.8 33.7,49.6 84,88.8 150.9,117.7 66.9,28.9 148.9,43.3 246.2,43.3 66.4,0 131.8,-7.5 196.3,-22.4 64.5,-14.9 121.3,-36.8 170.4,-65.7 l -88.1,-212.2 c -96.3,51.9 -189.6,77.9 -280.1,77.9 -56.8,0 -98.2,-8.4 -124.2,-25.3 -25.9,-16.8 -38.9,-38.7 -38.9,-65.6 0,-27 15.3,-47.2 46.2,-60.7 30.7,-13.4 80.3,-27.4 148.7,-41.8 77,-16.4 140.7,-34 191.3,-52.8 50.5,-18.7 94.3,-48.6 131.4,-89.5 37,-40.9 55.6,-96.5 55.6,-166.7 0,-60.7 -16.9,-115.5 -50.6,-164.6 -33.7,-49.1 -84.2,-88.3 -151.6,-117.7 -67.4,-29.3 -149.2,-44 -245.4,-44 -81.9,0 -161.3,10.1 -238.3,30.3"
        style="fill: #000000; fill-opacity: 1; fill-rule: nonzero; stroke: none"
        id="path26"
      />
      <path
        d="m 30031.2,25120.4 c -77,20.2 -139.6,47.1 -187.7,80.9 l 93.8,210.8 c 45.3,-29.9 97.7,-54 157.4,-72.2 59.7,-18.3 118.4,-27.5 176.2,-27.5 109.7,0 164.6,27.5 164.6,82.3 0,28.9 -15.7,50.3 -47,64.3 -31.3,13.9 -81.5,28.6 -150.9,44 -76,16.3 -139.5,33.9 -190.5,52.7 -51.1,18.8 -94.9,48.9 -131.4,90.2 -36.6,41.4 -54.9,97.3 -54.9,167.5 0,61.6 16.8,117.2 50.5,166.8 33.7,49.6 84,88.8 150.9,117.7 66.9,28.9 149,43.3 246.2,43.3 66.4,0 131.9,-7.5 196.3,-22.4 64.5,-14.9 121.3,-36.8 170.4,-65.7 l -88,-212.2 c -96.3,51.9 -189.7,77.9 -280.1,77.9 -56.9,0 -98.2,-8.4 -124.2,-25.3 -26,-16.8 -39,-38.7 -39,-65.6 0,-27 15.4,-47.2 46.2,-60.7 30.8,-13.4 80.3,-27.4 148.7,-41.8 77,-16.4 140.8,-34 191.3,-52.8 50.6,-18.7 94.3,-48.6 131.4,-89.5 37.1,-40.9 55.6,-96.5 55.6,-166.7 0,-60.7 -16.9,-115.5 -50.6,-164.6 -33.7,-49.1 -84.2,-88.3 -151.5,-117.7 -67.4,-29.3 -149.2,-44 -245.5,-44 -81.8,0 -161.2,10.1 -238.2,30.3"
        style="fill: #000000; fill-opacity: 1; fill-rule: nonzero; stroke: none"
        id="path28"
      />
      <path
        d="m 30862.8,25143.5 c -31.8,30.8 -47.7,69.8 -47.7,116.9 0,48.1 15.7,87.2 47,117 31.2,29.8 70.5,44.8 117.6,44.8 48.2,0 87.6,-15 118.4,-44.8 30.8,-29.8 46.2,-68.9 46.2,-117 0,-47.1 -15.6,-86.1 -46.9,-116.9 -31.3,-30.8 -70.5,-46.2 -117.7,-46.2 -46.2,0 -85.1,15.4 -116.9,46.2"
        style="fill: #000000; fill-opacity: 1; fill-rule: nonzero; stroke: none"
        id="path30"
      />
      <path
        d="m 31271.4,25143.5 c -31.8,30.8 -47.7,69.8 -47.7,116.9 0,48.1 15.7,87.2 46.9,117 31.3,29.8 70.6,44.8 117.7,44.8 48.1,0 87.6,-15 118.4,-44.8 30.8,-29.8 46.2,-68.9 46.2,-117 0,-47.1 -15.6,-86.1 -46.9,-116.9 -31.3,-30.8 -70.5,-46.2 -117.7,-46.2 -46.2,0 -85.1,15.4 -116.9,46.2"
        style="fill: #000000; fill-opacity: 1; fill-rule: nonzero; stroke: none"
        id="path32"
      />
      <path
        d="m 31679.9,25143.5 c -31.7,30.8 -47.6,69.8 -47.6,116.9 0,48.1 15.6,87.2 46.9,117 31.3,29.8 70.5,44.8 117.7,44.8 48.1,0 87.6,-15 118.4,-44.8 30.8,-29.8 46.2,-68.9 46.2,-117 0,-47.1 -15.7,-86.1 -46.9,-116.9 -31.3,-30.8 -70.5,-46.2 -117.7,-46.2 -46.2,0 -85.2,15.4 -117,46.2"
        style="fill: #000000; fill-opacity: 1; fill-rule: nonzero; stroke: none"
        id="path34"
      />
      <path
        d="m 23794.4,10547.6 c 21.6,18.5 32.4,44.8 32.4,78.9 0,34.2 -10.8,60.7 -32.4,79.5 -21.6,18.8 -53.7,28.2 -96.2,28.2 h -115 v -214.3 h 115 c 42.5,0 74.6,9.3 96.2,27.7 z m 88.8,316.7 c 48.8,-21.9 86.4,-53.3 112.9,-94 26.5,-40.8 39.7,-88.7 39.7,-143.8 0,-55 -13.2,-102.8 -39.7,-143.2 -26.5,-40.4 -64.1,-71.6 -112.9,-93.5 -48.8,-22 -106.3,-32.9 -172.4,-32.9 h -127.6 v -191.3 h -206.9 v 731.6 h 334.5 c 66.1,0 123.6,-10.9 172.4,-32.9"
        style="fill: #000000; fill-opacity: 1; fill-rule: nonzero; stroke: none"
        id="path36"
      />
      <path
        d="m 24416.3,10298.3 c 17.4,11.2 29.9,27.6 37.6,49.2 v 49.1 h -85.7 c -57.8,0 -86.8,-19.2 -86.8,-57.5 0,-17.4 6.7,-31.4 19.9,-41.8 13.2,-10.5 31.4,-15.7 54.4,-15.7 23,0 43.2,5.6 60.6,16.7 z m 162,378.9 c 49.5,-42.8 74.2,-108.5 74.2,-197 v -314.6 h -185 v 73.2 c -28.6,-55.1 -84.3,-82.6 -167.2,-82.6 -43.9,0 -81.9,7.7 -114,23 -32,15.3 -56.2,36 -72.6,62.2 -16.4,26.1 -24.6,55.9 -24.6,89.3 0,53.7 20.6,95.3 61.7,124.9 41.1,29.7 104.5,44.5 190.2,44.5 h 112.9 c -3.5,59.9 -43.5,89.9 -120.2,89.9 -27.2,0 -54.7,-4.4 -82.6,-13.1 -27.8,-8.7 -51.5,-20.7 -71,-36.1 l -66.9,134.9 c 31.3,20.9 69.5,37.1 114.4,48.6 45,11.5 90.1,17.2 135.4,17.2 94,0 165.8,-21.4 215.3,-64.3"
        style="fill: #000000; fill-opacity: 1; fill-rule: nonzero; stroke: none"
        id="path38"
      />
      <path
        d="m 25164.1,10385.1 c 23.4,21.6 35,49.5 35,83.6 0,34.1 -11.5,61.8 -34.5,83.1 -23,21.2 -52.6,31.9 -88.8,31.9 -36.2,0 -66,-10.7 -89.4,-31.9 -23.3,-21.3 -35,-49 -35,-83.1 0,-34.1 11.9,-62 35.5,-83.6 23.7,-21.6 53.4,-32.4 88.9,-32.4 35.5,0 65,10.8 88.3,32.4 z m 231.5,347 v -463 c 0,-105.2 -28.5,-184.1 -85.7,-236.8 -57.1,-52.6 -139.4,-78.9 -246.6,-78.9 -55.8,0 -108.1,6.3 -156.8,18.8 -48.8,12.6 -90.3,31 -124.4,55.4 l 72.1,139 c 23,-18.8 52.1,-33.6 87.3,-44.4 35.2,-10.8 69.8,-16.2 104,-16.2 52.2,0 90.6,11.5 115,34.5 24.3,23 36.5,57.1 36.5,102.4 v 18.9 c -38.3,-44.6 -94.4,-66.9 -168.2,-66.9 -50.2,0 -96.6,11.3 -139.1,33.9 -42.5,22.7 -76.3,54.7 -101.3,96.2 -25.1,41.4 -37.7,89.4 -37.7,143.7 0,53.7 12.6,101.2 37.7,142.7 25,41.4 58.8,73.5 101.3,96.1 42.5,22.7 88.9,34 139.1,34 80.8,0 140,-26.1 177.6,-78.4 v 69 h 189.2"
        style="fill: #000000; fill-opacity: 1; fill-rule: nonzero; stroke: none"
        id="path40"
      />
      <path
        d="m 25723.3,10574.3 c -20.6,-17.5 -33.6,-41.1 -39.2,-71.1 h 232 c -5.6,30 -18.6,53.6 -39.2,71.1 -20.5,17.4 -46.1,26.1 -76.8,26.1 -30.7,0 -56.3,-8.7 -76.8,-26.1 z m 375.7,-175.6 h -411.8 c 8.4,-29.3 24.6,-51.8 48.6,-67.4 24.1,-15.7 54.2,-23.6 90.4,-23.6 27.2,0 50.7,3.9 70.6,11.5 19.9,7.7 39.9,20.2 60.1,37.7 l 104.5,-108.7 c -55,-61.4 -135.5,-92 -241.4,-92 -66.2,0 -124.4,12.5 -174.6,37.6 -50.1,25.1 -89,59.9 -116.5,104.5 -27.6,44.6 -41.3,95.2 -41.3,151.6 0,55.7 13.4,105.7 40.2,150 26.9,44.2 64,78.9 111.4,104 47.3,25.1 100.6,37.6 159.9,37.6 56.4,0 107.6,-11.7 153.6,-35 46,-23.4 82.4,-57.1 109.2,-101.4 26.9,-44.3 40.3,-96.7 40.3,-157.3 0,-1.4 -1.1,-17.8 -3.2,-49.1"
        style="fill: #000000; fill-opacity: 1; fill-rule: nonzero; stroke: none"
        id="path42"
      />
      <path
        d="m 27203.8,10897.2 v -731.6 h -170.3 l -323,389.9 v -389.9 h -202.8 v 731.6 h 170.4 l 323,-389.8 v 389.8 h 202.7"
        style="fill: #000000; fill-opacity: 1; fill-rule: nonzero; stroke: none"
        id="path44"
      />
      <path
        d="m 27710.8,10350.1 c 22.2,24 33.4,57.3 33.4,99.8 0,41.8 -11.2,74.6 -33.4,98.2 -22.4,23.7 -50.9,35.6 -85.8,35.6 -34.8,0 -63.4,-11.9 -85.7,-35.6 -22.3,-23.6 -33.4,-56.4 -33.4,-98.2 0,-42.5 11.1,-75.8 33.4,-99.8 22.3,-24.1 50.9,-36.1 85.7,-36.1 34.9,0 63.4,12 85.8,36.1 z m -249.9,-156.3 c -48.7,25.1 -86.9,59.9 -114.4,104.5 -27.5,44.6 -41.3,95.2 -41.3,151.6 0,55.7 13.8,105.9 41.3,150.5 27.5,44.6 65.5,79.3 113.9,104 48.4,24.7 103.3,37.1 164.6,37.1 61.4,0 116.4,-12.4 165.2,-37.1 48.8,-24.7 86.7,-59.2 113.9,-103.5 27.2,-44.2 40.8,-94.6 40.8,-151 0,-56.4 -13.6,-107 -40.8,-151.6 -27.2,-44.6 -65.1,-79.4 -113.9,-104.5 -48.8,-25.1 -103.8,-37.6 -165.2,-37.6 -60.6,0 -115.3,12.5 -164.1,37.6"
        style="fill: #000000; fill-opacity: 1; fill-rule: nonzero; stroke: none"
        id="path46"
      />
      <path
        d="m 28427.8,10188.6 c -16.8,-10.5 -37.1,-18.5 -61.2,-24 -24,-5.6 -49.6,-8.4 -76.8,-8.4 -73.9,0 -130.7,18.1 -170.4,54.3 -39.7,36.3 -59.6,90.3 -59.6,162 v 190.3 h -82.5 v 148.4 h 82.5 v 147.4 h 198.6 v -147.4 h 129.6 v -148.4 h -129.6 v -188.2 c 0,-20.2 5.4,-36 16.2,-47.5 10.8,-11.5 25.3,-17.3 43.4,-17.3 23,0 43.2,6 60.6,17.8 l 49.2,-139"
        style="fill: #000000; fill-opacity: 1; fill-rule: nonzero; stroke: none"
        id="path48"
      />
      <path
        d="m 29024.6,10737.3 v -160.9 h 322.9 v -160 h -322.9 v -250.8 h -207 v 731.6 h 573.8 v -159.9 h -366.8"
        style="fill: #000000; fill-opacity: 1; fill-rule: nonzero; stroke: none"
        id="path50"
      />
      <path
        d="m 29836.7,10350.1 c 22.3,24 33.4,57.3 33.4,99.8 0,41.8 -11.1,74.6 -33.4,98.2 -22.3,23.7 -50.9,35.6 -85.7,35.6 -34.9,0 -63.4,-11.9 -85.7,-35.6 -22.3,-23.6 -33.5,-56.4 -33.5,-98.2 0,-42.5 11.2,-75.8 33.5,-99.8 22.3,-24.1 50.8,-36.1 85.7,-36.1 34.8,0 63.4,12 85.7,36.1 z m -249.8,-156.3 c -48.8,25.1 -86.9,59.9 -114.5,104.5 -27.5,44.6 -41.2,95.2 -41.2,151.6 0,55.7 13.7,105.9 41.2,150.5 27.6,44.6 65.5,79.3 114,104 48.4,24.7 103.3,37.1 164.6,37.1 61.3,0 116.4,-12.4 165.1,-37.1 48.8,-24.7 86.8,-59.2 114,-103.5 27.1,-44.2 40.7,-94.6 40.7,-151 0,-56.4 -13.6,-107 -40.7,-151.6 -27.2,-44.6 -65.2,-79.4 -114,-104.5 -48.7,-25.1 -103.8,-37.6 -165.1,-37.6 -60.6,0 -115.3,12.5 -164.1,37.6"
        style="fill: #000000; fill-opacity: 1; fill-rule: nonzero; stroke: none"
        id="path52"
      />
      <path
        d="m 30758.6,10732.1 v -566.5 h -189.2 v 60.6 c -20.9,-23 -46,-40.4 -75.3,-52.2 -29.2,-11.9 -60.3,-17.8 -93,-17.8 -73.2,0 -131.5,21.6 -175.1,64.8 -43.5,43.2 -65.3,108 -65.3,194.4 v 316.7 h 198.6 v -284.3 c 0,-42.5 8,-73.5 24,-93 16,-19.5 39.4,-29.3 70.1,-29.3 31.3,0 56.9,11 76.8,32.9 19.8,22 29.8,55.6 29.8,100.9 v 272.8 h 198.6"
        style="fill: #000000; fill-opacity: 1; fill-rule: nonzero; stroke: none"
        id="path54"
      />
      <path
        d="m 31424.9,10678.8 c 42.8,-41.8 64.3,-104.9 64.3,-189.2 v -324 h -198.6 v 291.6 c 0,77.4 -31,116 -93.1,116 -34.1,0 -61.5,-11.1 -82,-33.4 -20.6,-22.3 -30.8,-55.8 -30.8,-100.4 v -273.8 h -198.6 v 566.5 h 189.1 v -61.7 c 22.3,23 48.8,40.6 79.5,52.8 30.6,12.2 64.1,18.3 100.3,18.3 70.4,0 127,-20.9 169.9,-62.7"
        style="fill: #000000; fill-opacity: 1; fill-rule: nonzero; stroke: none"
        id="path56"
      />
      <path
        d="m 31995,10350.1 c 22.3,24 33.5,57.3 33.5,99.8 0,41.8 -11,74.6 -32.9,98.2 -22,23.7 -50.4,35.6 -85.2,35.6 -34.9,0 -63.4,-11.9 -85.7,-35.6 -22.3,-23.6 -33.5,-56.4 -33.5,-98.2 0,-42.5 11.2,-75.8 33.5,-99.8 22.3,-24.1 50.8,-36.1 85.7,-36.1 34.1,0 62.3,12 84.6,36.1 z m 228.9,591.1 v -775.6 h -189.1 v 56.4 c -37,-43.9 -92.4,-65.8 -166.2,-65.8 -51.6,0 -98.6,12 -141.1,36 -42.5,24.1 -76.2,58.4 -100.9,103 -24.7,44.6 -37.1,96.2 -37.1,154.7 0,58.5 12.4,109.9 37.1,154.2 24.7,44.2 58.4,78.2 100.9,101.9 42.5,23.7 89.5,35.5 141.1,35.5 67.5,0 119.8,-19.5 156.8,-58.5 v 258.2 h 198.5"
        style="fill: #000000; fill-opacity: 1; fill-rule: nonzero; stroke: none"
        id="path58"
      />
      <path
        d="m 22228.7,17301.6 v 1790.9 h -2814.1 v -1790.9 h -2137.2 l 4289,6155.2 h -3085.1 l -4725.7,-6576.7 v -1941.9 h 5568.6 v -2016.5 h 2904.5 v 2016.5 H 23794 v 2363.4 h -1565.3"
        style="fill: #2971bf; fill-opacity: 1; fill-rule: nonzero; stroke: none"
        id="path550"
      />
      <path
        d="m 30242.9,15879.1 c -295.8,-486.6 -694.5,-729.9 -1196.3,-729.9 -511.8,0 -915.6,243.3 -1211.4,729.9 -296.3,486.6 -444.2,1256.9 -444.2,2310.4 0,1053.4 147.9,1823.2 444.2,2309.8 295.8,486.6 699.6,729.9 1211.4,729.9 501.8,0 900.5,-243.3 1196.3,-729.9 295.8,-486.6 444.2,-1256.4 444.2,-2309.8 0,-1053.5 -148.4,-1823.8 -444.2,-2310.4 z m 2844.4,5252.7 c -396.2,827.8 -945.4,1457.3 -1647.5,1888.8 -702.7,431.1 -1500.2,647.2 -2393.2,647.2 -903,0 -1706.1,-216.1 -2408.2,-647.2 -702.2,-431.5 -1251.9,-1061 -1648.1,-1888.8 -396.3,-827.8 -594.1,-1808.6 -594.1,-2942.3 0,-1134.3 197.8,-2114.5 594.1,-2942.3 396.2,-827.9 945.9,-1457.8 1648.1,-1888.9 702.1,-431.6 1505.2,-647.1 2408.2,-647.1 893,0 1690.5,215.5 2393.2,647.1 702.1,431.1 1251.3,1061 1647.5,1888.9 396.3,827.8 594.6,1808 594.6,2942.3 0,1133.7 -198.3,2114.5 -594.6,2942.3"
        style="fill: #2971bf; fill-opacity: 1; fill-rule: nonzero; stroke: none"
        id="path552"
      />
      <path
        d="m 43073.2,17301.6 v 1790.9 h -2814.6 v -1790.9 h -2136.7 l 2067.6,2967 1816.6,2607.2 404.8,581 h -3085.1 l -4725.7,-6576.7 v -1941.9 h 5568.1 v -2016.5 h 2905 v 2016.5 h 1565.3 v 2363.4 h -1565.3"
        style="fill: #2971bf; fill-opacity: 1; fill-rule: nonzero; stroke: none"
        id="path554"
      />
      <path
        d="m 19201.6,13139.8 h 2803.7 v 2016.7 h 1565.2 v 2261.9 h -1565.2 v 1790.9 h -2713.4 v -1790.9 h -2284.3 l 4289.3,6155.5 H 18334.2 L 13633,17031.2 v -1874.7 h 5568.6 v -2016.7 m 2904.7,-101 h -3005.7 v 2016.7 h -5568.5 v 2008.2 l 4750.3,6611.1 h 3207.8 L 17201,17519.3 h 1989.9 v 1791 h 2915.4 v -1791 h 1565.2 v -2463.8 h -1565.2 v -2016.7"
        style="fill: #000000; fill-opacity: 1; fill-rule: nonzero; stroke: none"
        id="path556"
      />
      <path
        d="m 28807.5,21649.5 c -490.5,0 -883.7,-237.5 -1168.4,-705.7 -289.7,-476.3 -436.6,-1244.8 -436.6,-2284 0,-1039.4 146.9,-1807.9 436.6,-2284 284.6,-468.2 677.7,-705.6 1168.4,-705.6 487.3,0 864.6,230.8 1153.4,705.6 289.7,476.6 436.6,1245 436.6,2284 0,1038.8 -146.9,1807.2 -436.6,2284 -285,468.2 -673,705.7 -1153.4,705.7 z m 0,-6080.3 c -528.4,0 -950.5,253.8 -1254.6,754.2 -299.5,492.1 -451.4,1278.2 -451.4,2336.4 0,1058 151.9,1844.1 451.4,2336.4 304.2,500.5 726.4,754.2 1254.6,754.2 518.1,0 935.1,-253.7 1239.6,-754.2 299.5,-492.8 451.4,-1278.9 451.4,-2336.4 0,-1057.8 -151.9,-1843.9 -451.4,-2336.4 -304.3,-500.4 -721.4,-754.2 -1239.6,-754.2 z m 0,8518.4 c -889.2,0 -1690.5,-215.2 -2381.6,-639.7 -690.8,-424.4 -1238.8,-1052.8 -1628.9,-1867.6 -391.1,-816.7 -589.5,-1799.3 -589.5,-2920.5 0,-1121.2 198.4,-2103.8 589.5,-2920.5 390.3,-815.2 938.3,-1443.6 1628.9,-1867.5 v -0.1 c 690.7,-424.4 1492,-639.6 2381.6,-639.6 879.5,0 1675.7,215.2 2366.6,639.6 690.3,424 1238.4,1052.4 1628.9,1867.6 391.2,817.2 589.5,1799.8 589.5,2920.5 0,1120.8 -198.3,2103.4 -589.5,2920.5 -390.4,814.9 -938.4,1443.2 -1628.9,1867.6 -691.4,424.5 -1487.6,639.7 -2366.6,639.7 z m 0,-10956.5 c -908.6,0 -1727.6,220.3 -2434.4,654.6 -707.4,434.4 -1268.3,1077 -1667.1,1910 -397.8,830.4 -599.4,1827.7 -599.4,2964.1 0,1136.4 201.6,2133.7 599.4,2964.1 398.6,832.7 959.5,1475.3 1667.1,1910 707.2,434.4 1526.3,654.7 2434.4,654.7 897.9,0 1711.9,-220.3 2419.4,-654.7 707.4,-434.7 1268.3,-1077.3 1667.2,-1910 397.7,-830.9 599.3,-1828.1 599.3,-2964.1 0,-1135.9 -201.6,-2133.2 -599.3,-2964.1 -399.1,-833 -960,-1475.7 -1667.2,-1910 -707,-434.3 -1521,-654.6 -2419.4,-654.6"
        style="fill: #000000; fill-opacity: 1; fill-rule: nonzero; stroke: none"
        id="path558"
      />
      <path
        d="m 39980,13442.8 h 2803.7 v 2016.7 h 1565.2 v 2261.9 h -1565.2 v 1790.9 H 40070.3 V 17721.4 H 37786 l 55.3,79.3 4233.9,6076.2 H 39112.6 L 34411.4,17334.2 V 15459.5 H 39980 v -2016.7 m 2904.7,-101 H 39879 v 2016.7 h -5568.6 v 2008.2 l 9.5,13.2 4740.9,6597.9 h 3207.9 l -55.3,-79.3 -4234,-6076.2 h 1989.9 v 1791 h 2915.4 v -1791 h 1565.1 v -2463.8 h -1565.1 v -2016.7"
        style="fill: #000000; fill-opacity: 1; fill-rule: nonzero; stroke: none"
        id="path560"
      />
      <path
        d="m 43310.3,20113.7 c 0,0 60.4,-140.5 23.1,-140.5 -37.4,0 -112.1,164.8 -147.6,178.5 l -10.7,4.7 4.5,41.8 59.5,7.1 71.2,-91.6"
        style="fill: #364f6b; fill-opacity: 1; fill-rule: nonzero; stroke: none"
        id="path562"
      />
      <path
        d="m 43005.3,20405.8 90.6,-60 c 0,0 22.4,-4.1 51.5,-11.2 46,-10.7 109.3,-28.6 127.4,-47.5 29.2,-30.7 102.7,-78.6 153.3,-73.4 50.6,5.4 14.7,69.5 2.7,66.4 -12,-2.9 -105.4,67 -96.1,116.4 9.4,49.3 166.6,18.6 165.4,-92.1 -10.8,-164.6 47.9,-134.7 47.9,-134.7 40,3.9 22.8,225.5 22.8,242.7 0,17.5 -112,94.9 -118.6,98.8 -6.9,3.9 -110.8,-5.4 -165.6,-23 -29.5,-9.6 -76.6,-8.7 -113.7,-6.1 -31.5,2.3 -56,6.1 -56,6.1 l -50.2,1.6 -61.4,-84"
        style="fill: #364f6b; fill-opacity: 1; fill-rule: nonzero; stroke: none"
        id="path564"
      />
      <path
        d="m 43147.4,20334.6 c -29.1,7.1 -51.5,11.2 -51.5,11.2 v 0 c -27.8,68.6 6.4,123.5 20.9,142.4 h 0.1 c 0,0 24.5,-3.8 56,-6.1 -19.3,-24.4 -35.5,-68.4 -25.5,-147.5"
        style="fill: #30445b; fill-opacity: 1; fill-rule: nonzero; stroke: none"
        id="path566"
      />
      <path
        d="m 41820.8,20705.8 128.3,-392.1 c 0,0 338.5,-47.9 584,-29.3 234.4,17.9 534.6,57.7 561,61.2 1.2,0.2 1.8,0.2 1.8,0.2 -34.6,85.3 26.8,149.4 26.8,149.4 -64.1,22.2 -245.4,27.8 -422.2,27.6 h -0.2 c -206.9,-0.4 -407.3,-8.9 -407.3,-8.9 -28.2,155.2 -68.2,301.9 -108.9,428.6 -81.7,254.6 -166.6,428.4 -166.6,428.4 h -81.9 l -114.8,-665.1"
        style="fill: #000000; fill-opacity: 1; fill-rule: nonzero; stroke: none"
        id="path568"
      />
      <path
        d="m 43105.6,17821.8 -55.1,-257.7 -204.4,8.8 34.9,323 224.6,-74.1"
        style="fill: #364f6b; fill-opacity: 1; fill-rule: nonzero; stroke: none"
        id="path570"
      />
      <path
        d="m 42760.1,17433.7 c 0.7,-35.9 10,-68.6 35.9,-89.2 87.2,-69.3 855.2,-16.8 852.7,31.1 -2.3,41.1 -28.6,59.4 -36.3,63.9 -203.9,-39.4 -557.7,-84.8 -852.3,-5.8"
        style="fill: #e1e1e1; fill-opacity: 1; fill-rule: nonzero; stroke: none"
        id="path572"
      />
      <path
        d="m 42760.1,17433.7 c 294.6,-79 648.4,-33.6 852.3,5.8 -1.2,0.7 -2,1.1 -2,1.1 0,0 -204,124.3 -511.9,202.7 0,0 -82.1,-83.6 -291.9,-19.5 0,0 -48.5,-104.2 -46.5,-190.1"
        style="fill: #1a1a1a; fill-opacity: 1; fill-rule: nonzero; stroke: none"
        id="path574"
      />
      <path
        d="m 42810.5,17675.7 c 0,0 17,13.5 49.5,25.3 17.7,6.7 40.1,12.7 66.8,15.4 40.9,4.8 92.2,2.1 152.8,-16.8 19.7,-6.2 40.2,-14.1 61.8,-23.9 0,0 61.2,184.3 127.8,415.4 70.5,245.2 147.3,543.1 163.7,729.9 0,0 -52.3,146.4 -202.1,262 -84.9,65.6 -200.8,120.9 -356.2,134.4 0,0 -17.9,-191.5 -36.1,-445 -26.2,-365.7 -53.1,-860.6 -28,-1096.7"
        style="fill: #000000; fill-opacity: 1; fill-rule: nonzero; stroke: none"
        id="path576"
      />
      <path
        d="m 42810.5,17675.7 c -7.1,66.4 -10,153.3 -10,252 0,124 4.6,266.7 11.6,410.9 41.1,-107.4 84.1,-302.6 63.5,-632.3 -5.5,-1.7 -10.7,-3.4 -15.6,-5.3 v 0 c -32.6,-11.8 -49.5,-25.3 -49.5,-25.3 m 203.3,602.4 c -62.7,48 -128.7,93.1 -198,135.1 6.7,124.4 14.7,247.8 22.7,359.2 4,55.8 8,108.5 11.8,156.9 1.2,0 2.5,0 3.7,0 108.8,0 164.6,5.4 164.6,5.4 0,0 34.4,-91.5 102.2,-232.5 -37.8,-138 -75.2,-283.6 -107,-424.1"
        style="fill: #4a2140; fill-opacity: 1; fill-rule: nonzero; stroke: none"
        id="path578"
      />
      <path
        d="m 41523.1,21211 384,-28.4 c 0,0 7.1,300.8 -50.2,339.6 -10.5,7 -17.4,15.3 -21.5,24.5 -18.9,39.8 14.9,91.5 14.9,91.5 l 0.4,-0.5 c 7.3,-8.7 134.7,-160.1 191.7,-134.2 58.5,26.6 58.5,162.7 58.5,162.7 0,0 112.1,-56.1 96.1,24 -16,79.9 16,253.4 58.7,328 5.4,9.4 9.7,20.2 13.3,32 35.4,116.4 -24.1,240.4 -133.4,294.4 -491.7,241.9 -524.7,-235.9 -518.3,-456.2 7.1,-240.1 -65.7,-275.6 -65.7,-275.6 l -28.5,-401.8"
        style="fill: #364f6b; fill-opacity: 1; fill-rule: nonzero; stroke: none"
        id="path580"
      />
      <path
        d="m 43916.1,17951 145.4,-219.8 -149.4,-139.8 -206.2,251.1 210.2,108.5"
        style="fill: #364f6b; fill-opacity: 1; fill-rule: nonzero; stroke: none"
        id="path582"
      />
      <path
        d="m 43938.9,17477.2 c 21.5,-22.2 46.7,-37.4 75.1,-35 95.7,7.7 548.2,493.1 518.4,521.8 -25.6,24.5 -53,20.5 -60.5,18.8 -105.1,-144.9 -301,-381.8 -533,-505.6"
        style="fill: #e1e1e1; fill-opacity: 1; fill-rule: nonzero; stroke: none"
        id="path584"
      />
      <path
        d="m 43938.9,17477.2 c 232,123.8 427.9,360.7 533,505.6 -1.1,-0.3 -1.9,-0.6 -1.9,-0.6 0,0 -201.5,-41.9 -441.5,-173.8 0,0 -2.5,-101 -172.3,-184.2 0,0 30.8,-94.2 82.7,-147"
        style="fill: #1a1a1a; fill-opacity: 1; fill-rule: nonzero; stroke: none"
        id="path586"
      />
      <path
        d="m 41754.3,19046.7 c 821.5,-154.6 1264.3,-112 1264.3,-112 0,0 266.8,-709.6 779,-1221.6 0,0 0.8,5.2 3.3,13.7 10.6,36.3 50.8,132.3 180.1,125.9 5.2,0 10.6,-0.4 16.2,-1 0,0 -215.8,1141.7 -599.8,1493.7 0,0 -832.2,266.8 -1323,336.1 -239.2,34.1 -431.6,67.9 -565.8,93.4 -141.3,27.2 -218.5,45.4 -218.5,45.4 0,0 -357.4,-618.8 464.2,-773.6"
        style="fill: #000000; fill-opacity: 1; fill-rule: nonzero; stroke: none"
        id="path588"
      />
      <path
        d="m 42407.5,20280.1 c -89,0 -180.7,5.5 -258.4,12 v 0 c 77.7,-6.5 169.4,-12 258.4,-12 43.1,0 85.6,1.3 125.6,4.3 234.4,17.9 534.6,57.7 561,61.2 1.2,0.2 1.8,0.2 1.8,0.2 v 0 c 0,0 -317.4,-42.7 -562.8,-61.4 -40,-3 -82.5,-4.3 -125.6,-4.3"
        style="fill: #d1c4c4; fill-opacity: 1; fill-rule: nonzero; stroke: none"
        id="path590"
      />
      <path
        d="m 42407.5,20280.1 c -89,0 -180.7,5.5 -258.4,12 -0.6,4.8 -1.2,9.7 -1.7,14.5 -15.4,135.3 -28.4,270 -34,374.3 -12.7,246.5 -54.3,576.7 -85.8,668.7 24.8,-53.8 91.6,-205 156.5,-407.1 4.8,-110.3 36.5,-278.9 47.6,-323.4 26.7,-107 37.4,-173.3 37.4,-173.3 0,0 646.3,-0.2 826.8,-100 0,0 -0.6,0 -1.8,-0.2 -26.4,-3.5 -326.6,-43.3 -561,-61.2 -40,-3 -82.5,-4.3 -125.6,-4.3"
        style="fill: #4a2140; fill-opacity: 1; fill-rule: nonzero; stroke: none"
        id="path592"
      />
      <path
        d="m 43797.6,17713.1 c -328.3,328.1 -555.8,737.4 -676.8,989.1 -67.8,141 -102.2,232.5 -102.2,232.5 0,0 -55.8,-5.4 -164.6,-5.4 -1.2,0 -2.5,0 -3.7,0 -198.6,0.2 -569.5,18.3 -1096,117.4 -438.9,82.7 -541.4,297.8 -541.6,480.2 0,57.2 9.9,111.1 22.7,156.7 57.6,-22 133,-45 220.5,-58.2 -25.8,-113.9 -16.8,-236.5 88.6,-324.4 256,-213.4 1659.9,-224 1659.9,-224 0,0 121.8,-607.9 507.3,-1231.3 8.7,-14.4 17.6,-28.5 26.8,-42.8 19,-30.1 38.8,-59.9 59.1,-89.8"
        style="fill: #4a2140; fill-opacity: 1; fill-rule: nonzero; stroke: none"
        id="path594"
      />
      <path
        d="m 42447,22462.9 c 30.3,5 56.1,-21.3 49.2,-51.3 -26.6,-113.9 -105.4,-324 -316.9,-231.5 -284.6,124.5 -337.9,44.4 -341.5,-46.2 0,0 -46.2,119.1 -119.1,39.1 -48.5,-46.3 152.9,-304.1 -19.6,-313 -172.5,-8.9 -238.3,364.5 -238.3,417.9 0,53.3 5.4,400.1 297,375.2 267.7,-22.8 463.5,-227 689.2,-190.2"
        style="fill: #000000; fill-opacity: 1; fill-rule: nonzero; stroke: none"
        id="path596"
      />
      <path
        d="m 41114,19740.2 c 0,0 277.4,-168.8 625.9,-115.5 66.6,-4.4 125.3,-14.1 179.1,-22.2 76.5,-11.4 142.5,-19.3 205.2,-2.7 106.6,28.4 113.7,17.8 92.5,170.7 -13.3,94.6 -44.2,316.2 -69.3,536.1 -15.4,135.3 -28.4,270 -34,374.3 -14.1,273.9 -63.9,651 -95.9,690 -32.1,39.2 -111.2,142.4 -151.6,142.4 0,0 -100.9,-137.8 -285.1,134.6 0,0 -118.3,-61.8 -146.7,-129.2 -28.4,-67.7 -99.6,-250.9 -99.6,-336.1 0,-85.5 67.7,-876.8 -220.5,-1442.4"
        style="fill: #fc5185; fill-opacity: 1; fill-rule: nonzero; stroke: none"
        id="path598"
      />
      <path
        d="m 42707.6,19641.5 813.3,264.7 c 42.4,13.8 82.9,-25.2 70.9,-68 l -126.4,-448.4 c -8.3,-29.4 -38.6,-46.6 -68,-38.7 l -686.9,183.6 c -53.6,14.3 -55.6,89.6 -2.9,106.8"
        style="fill: #000000; fill-opacity: 1; fill-rule: nonzero; stroke: none"
        id="path600"
      />
      <path
        d="m 43411.9,19349.2 c -2,0 -4,0.1 -6,0.3 2,-0.2 3.9,-0.3 5.9,-0.3 24.3,0 46.7,16 53.6,40.6 l 52.8,187.4 -52.8,-187.4 c -6.9,-24.6 -29.2,-40.6 -53.5,-40.6 m 181.1,514.7 c -2.8,13.9 -10.8,26.2 -22,34.3 11.2,-8.1 19.3,-20.3 22,-34.3"
        style="fill: #d1c4c4; fill-opacity: 1; fill-rule: nonzero; stroke: none"
        id="path602"
      />
      <path
        d="m 43411.8,19349.2 c -2,0 -3.9,0.1 -5.9,0.3 -2.8,0.3 -5.7,0.8 -8.5,1.6 l -686.9,183.6 c -53.6,14.4 -55.6,89.6 -2.9,106.8 l 85.5,27.8 c 77.8,-83.3 188.8,-135.5 311.8,-135.5 217.9,0 397.7,163.4 423.6,374.3 3.3,0.6 6.6,0.9 9.9,0.9 12.1,0 23.4,-4 32.6,-10.8 11.2,-8.1 19.2,-20.4 22,-34.3 1.5,-8.2 1.3,-16.9 -1.2,-25.7 l -73.6,-261 -52.8,-187.4 c -6.9,-24.6 -29.3,-40.6 -53.6,-40.6"
        style="fill: #4a2140; fill-opacity: 1; fill-rule: nonzero; stroke: none"
        id="path604"
      />
      <path
        d="m 43841.7,20995.9 c 2.1,7.8 10.1,12.5 17.9,10.5 l 60.6,-15.4 c 8.1,-2 12.9,-10.2 10.7,-18.2 l -276.7,-1018.1 -89.3,22.7 276.8,1018.5"
        style="fill: #1a1a1a; fill-opacity: 1; fill-rule: nonzero; stroke: none"
        id="path606"
      />
      <path
        d="m 42487.4,19561 1228,398.7 c 7,2.3 10.8,9.8 8.5,16.9 l -21.4,65.9 c -2.2,7 -9.8,10.9 -16.8,8.6 l -1227.9,-398.7 c -7,-2.3 -10.9,-9.8 -8.6,-16.8 l 21.4,-66 c 2.3,-7 9.8,-10.8 16.8,-8.6"
        style="fill: #1a1a1a; fill-opacity: 1; fill-rule: nonzero; stroke: none"
        id="path608"
      />
      <path
        d="m 42995.8,19763.1 620.8,201.5 -7.3,22.4 -620.7,-201.5 7.2,-22.4"
        style="fill: #e1e1e1; fill-opacity: 1; fill-rule: nonzero; stroke: none"
        id="path610"
      />
      <path
        d="m 42857.1,19718.1 62.6,20.3 -7.2,22.3 -62.6,-20.3 7.2,-22.3"
        style="fill: #e1e1e1; fill-opacity: 1; fill-rule: nonzero; stroke: none"
        id="path612"
      />
      <path
        d="m 42767.5,19688.9 62.6,20.4 -7.3,22.3 -62.6,-20.3 7.3,-22.4"
        style="fill: #e1e1e1; fill-opacity: 1; fill-rule: nonzero; stroke: none"
        id="path614"
      />
      <path
        d="m 43655.6,19989.7 c 1.9,-5.6 7.9,-8.7 13.5,-6.9 5.6,1.8 8.7,7.9 6.8,13.5 -1.8,5.6 -7.8,8.6 -13.4,6.8 -5.6,-1.8 -8.7,-7.8 -6.9,-13.4"
        style="fill: #e1e1e1; fill-opacity: 1; fill-rule: nonzero; stroke: none"
        id="path616"
      />
      <path
        d="m 42926.6,20219.1 c 0,0 89.9,-59.6 94.6,-67.4 1.7,-2.5 17.3,-8.6 40.1,-15.8 25.1,-7.9 58.7,-17 92.1,-24.7 1.9,-0.4 3.5,-1 5,-1.2 1.6,-0.5 3.1,-0.7 4.5,-1.1 1.1,-0.2 1.5,-0.2 1.5,-0.2 25.1,-5.6 49.2,-10 68.9,-12.2 72,-8.1 129.4,-78.9 156,-92.8 26.7,-14.1 50.8,-14.1 74.7,-5 14.3,5.4 -53.8,61.3 -111.2,105.9 56.4,-40.3 131.5,-89 175.7,-97.5 8.9,-1.7 16.6,-1.7 22.6,0.2 58.5,19 -76.3,107.8 -164.3,175.7 -67.2,51.9 -227.2,114.5 -299.4,141.3 -22.6,8.5 -36.7,13.5 -36.7,13.5 l -109.5,-34.7 -14.6,-84"
        style="fill: #364f6b; fill-opacity: 1; fill-rule: nonzero; stroke: none"
        id="path618"
      />
      <path
        d="m 43153.4,20111.2 c -33.4,7.7 -67,16.8 -92.1,24.7 -22.8,7.2 -38.4,13.3 -40.1,15.8 -4.7,7.8 -94.6,67.4 -94.6,67.4 l 14.6,84 109.5,34.7 c 0,0 14.1,-5 36.7,-13.5 -20.7,-25.3 -37.3,-63.1 -21.8,-111.9 23.5,-72.6 67.3,-94.6 87.8,-101.2"
        style="fill: #30445b; fill-opacity: 1; fill-rule: nonzero; stroke: none"
        id="path620"
      />
      <path
        d="m 42044.6,19590.3 c -39.2,0 -80.6,5.5 -125.6,12.2 2.3,102.7 -1.1,208.9 -17.9,275.3 -41.5,164.3 -292.7,347.9 -440.2,867.2 -147.7,519.3 17,574.9 17,574.9 l 294.2,-108.9 c 0,0 42.5,-167.2 48.7,-227.6 6.3,-60.6 250,-565.6 299.8,-643.6 5.4,-8.5 14.8,-19.7 26.8,-33.2 25.1,-219.9 56,-441.5 69.3,-536.1 5.9,-42.4 9.6,-72.2 9.6,-93.8 0,-56.2 -25.1,-56.4 -102.1,-76.9 -25.8,-6.8 -52.2,-9.5 -79.6,-9.5"
        style="fill: #cf4670; fill-opacity: 1; fill-rule: nonzero; stroke: none"
        id="path622"
      />
      <path
        d="m 41437.7,21083 c 9.9,-41.5 24.2,-86.7 42.1,-134.3 147.3,-394.8 527.8,-949.7 527.8,-949.7 338.8,-7.9 1013.7,152.7 1013.7,152.7 -57.3,87.5 -4.8,153.5 19,176.9 6.3,6 10.4,9.2 10.4,9.2 -28.2,14.5 -71.6,25.5 -124.1,33.4 -248.7,37.7 -700.4,10.9 -700.4,10.9 0,0 -258.5,651.1 -325.1,857.3 -66.4,206.2 -555.8,231.1 -463.4,-156.4"
        style="fill: #000000; fill-opacity: 1; fill-rule: nonzero; stroke: none"
        id="path624"
      />
      <path
        d="m 41835.4,21546.7 c -76.4,65.3 -62.5,237.7 -62.5,237.7 23,-73.8 77.4,-146.2 77.4,-146.2 0,0 -20.6,-31.6 -20.7,-64.4 0,-9.1 1.6,-18.4 5.8,-27.1"
        style="fill: #30445b; fill-opacity: 1; fill-rule: nonzero; stroke: none"
        id="path626"
      />
      <path
        d="m 13119.4,18790.8 h 1350.5 l -39.2,138.5 h -1350.5 l 39.2,-138.5"
        style="fill: #000000; fill-opacity: 1; fill-rule: nonzero; stroke: none"
        id="path628"
      />
      <path
        d="m 13364.3,17925.1 h 1350.5 l -39.2,138.5 h -1350.5 l 39.2,-138.5"
        style="fill: #000000; fill-opacity: 1; fill-rule: nonzero; stroke: none"
        id="path630"
      />
      <path
        d="m 13609.2,17059.4 h 1350.4 l -39.1,138.6 H 13570 l 39.2,-138.6"
        style="fill: #000000; fill-opacity: 1; fill-rule: nonzero; stroke: none"
        id="path632"
      />
      <path
        d="m 13854,16193.7 h 1350.5 l -39.2,138.6 h -1350.5 l 39.2,-138.6"
        style="fill: #000000; fill-opacity: 1; fill-rule: nonzero; stroke: none"
        id="path634"
      />
      <path
        d="m 14098.9,15328 h 1350.5 l -39.2,138.6 h -1350.5 l 39.2,-138.6"
        style="fill: #000000; fill-opacity: 1; fill-rule: nonzero; stroke: none"
        id="path636"
      />
      <path
        d="m 14343.8,14462.3 h 1350.5 l -39.2,138.5 h -1350.5 l 39.2,-138.5"
        style="fill: #000000; fill-opacity: 1; fill-rule: nonzero; stroke: none"
        id="path638"
      />
      <path
        d="m 14588.7,13596.6 h 1350.5 l -39.2,138.6 h -1350.5 l 39.2,-138.6"
        style="fill: #000000; fill-opacity: 1; fill-rule: nonzero; stroke: none"
        id="path640"
      />
      <path
        d="m 16075.9,12618.4 h 279.9 l -1887.2,6671.7 h -279.9 l 1887.2,-6671.7"
        style="fill: #000000; fill-opacity: 1; fill-rule: nonzero; stroke: none"
        id="path642"
      />
      <path
        d="m 14725.4,12618.4 h 280 l -1887.3,6671.7 h -279.9 l 1887.2,-6671.7"
        style="fill: #000000; fill-opacity: 1; fill-rule: nonzero; stroke: none"
        id="path644"
      />
      <path
        d="m 14228,18929.4 -39.2,-138.5 h -1350.6 l 39.2,138.5 H 14228"
        style="fill: #000000; fill-opacity: 1; fill-rule: nonzero; stroke: none"
        id="path646"
      />
      <path
        d="m 13982.9,18063.7 -39.1,-138.6 h -1350.4 l 39.2,138.6 h 1350.3"
        style="fill: #000000; fill-opacity: 1; fill-rule: nonzero; stroke: none"
        id="path648"
      />
      <path
        d="m 13738.1,17197.9 -39.1,-138.5 h -1350.6 l 39.2,138.5 h 1350.5"
        style="fill: #000000; fill-opacity: 1; fill-rule: nonzero; stroke: none"
        id="path650"
      />
      <path
        d="m 13493.1,16332.1 -39.1,-138.3 h -1350.4 l 39.2,138.3 h 1350.3"
        style="fill: #000000; fill-opacity: 1; fill-rule: nonzero; stroke: none"
        id="path652"
      />
      <path
        d="m 13248.3,15466.6 -39.1,-138.5 h -1350.6 l 39.4,138.5 h 1350.3"
        style="fill: #000000; fill-opacity: 1; fill-rule: nonzero; stroke: none"
        id="path654"
      />
      <path
        d="m 13003.5,14600.8 -39.1,-138.5 h -1350.6 l 39.2,138.5 h 1350.5"
        style="fill: #000000; fill-opacity: 1; fill-rule: nonzero; stroke: none"
        id="path656"
      />
      <path
        d="m 12758.5,13735.1 -39.1,-138.5 H 11369 l 39.2,138.5 h 1350.3"
        style="fill: #000000; fill-opacity: 1; fill-rule: nonzero; stroke: none"
        id="path658"
      />
      <path
        d="m 11637.8,13596.6 h -129 l 39.2,138.5 h 129 l -39.2,-138.5"
        style="fill: #3f1a35; fill-opacity: 1; fill-rule: nonzero; stroke: none"
        id="path660"
      />
      <path
        d="m 11882.8,14462.3 h -129.1 l 39.2,138.5 h 129.1 l -39.2,-138.5"
        style="fill: #3f1a35; fill-opacity: 1; fill-rule: nonzero; stroke: none"
        id="path662"
      />
      <path
        d="m 12617.4,17059.4 h -129 l 39.2,138.5 h 129 l -39.2,-138.5"
        style="fill: #3f1a35; fill-opacity: 1; fill-rule: nonzero; stroke: none"
        id="path664"
      />
      <path
        d="m 13107.2,18790.9 h -10.2 c 8.6,50.4 16.4,97.1 23.2,138.5 h 26.2 l -39.2,-138.5"
        style="fill: #3f1a35; fill-opacity: 1; fill-rule: nonzero; stroke: none"
        id="path666"
      />
      <path
        d="m 12579.4,13596.6 h -167.8 l 39.2,138.5 h 167.8 l -39.2,-138.5"
        style="fill: #3f1a35; fill-opacity: 1; fill-rule: nonzero; stroke: none"
        id="path668"
      />
      <path
        d="m 12824.3,14462.3 h -167.9 l 39.2,138.5 h 167.9 l -39.2,-138.5"
        style="fill: #3f1a35; fill-opacity: 1; fill-rule: nonzero; stroke: none"
        id="path670"
      />
      <path
        d="m 13069.2,15328.1 h -168 l 39.4,138.5 h 167.8 l -39.2,-138.5"
        style="fill: #3f1a35; fill-opacity: 1; fill-rule: nonzero; stroke: none"
        id="path672"
      />
      <path
        d="m 13314.1,16193.8 h -167.9 l 39.2,138.3 h 167.9 l -39.2,-138.3"
        style="fill: #3f1a35; fill-opacity: 1; fill-rule: nonzero; stroke: none"
        id="path674"
      />
      <path
        d="m 13559,17059.4 h -168 l 39.2,138.5 h 168 l -39.2,-138.5"
        style="fill: #3f1a35; fill-opacity: 1; fill-rule: nonzero; stroke: none"
        id="path676"
      />
      <path
        d="m 11232.2,12618.4 h -280 l 1887.3,6671.7 h 279.9 l -1887.2,-6671.7"
        style="fill: #ad6989; fill-opacity: 1; fill-rule: nonzero; stroke: none"
        id="path678"
      />
      <path
        d="m 12582.7,12618.4 h -280 l 1887.3,6671.7 h 279.9 l -1887.2,-6671.7"
        style="fill: #ad6989; fill-opacity: 1; fill-rule: nonzero; stroke: none"
        id="path680"
      />
      <path
        d="m 14683.5,19232.3 h -2058.9 c -17.1,0 -31,13.9 -31,31.1 v 272.7 c 0,17.1 13.9,31 31,31 h 2058.9 c 17.1,0 31,-13.9 31,-31 v -272.7 c 0,-17.2 -13.9,-31.1 -31,-31.1"
        style="fill: #000000; fill-opacity: 1; fill-rule: nonzero; stroke: none"
        id="path682"
      />
      <path
        d="m 13814.2,17591.6 c 0,0 -302.6,-175.3 -819.4,60.3 0,0 224.9,160.6 506.1,139.2 281.2,-21.5 313.3,-199.5 313.3,-199.5"
        style="fill: #000000; fill-opacity: 1; fill-rule: nonzero; stroke: none"
        id="path684"
      />
      <path
        d="m 12802,17551.5 c 0,0 -369.5,-156.7 -843.5,192.7 0,0 249.1,249 486,249 237,0 357.5,-441.7 357.5,-441.7"
        style="fill: #000000; fill-opacity: 1; fill-rule: nonzero; stroke: none"
        id="path686"
      />
      <path
        d="m 12531.6,17405.5 c 0,0 88.3,277.1 101.7,316 13.4,38.8 -291.9,124.5 -291.9,124.5 0,0 56.3,-275.9 33.5,-396.4 -22.7,-120.4 -6.7,-151.2 -6.7,-151.2 l 163.4,107.1"
        style="fill: #364f6b; fill-opacity: 1; fill-rule: nonzero; stroke: none"
        id="path688"
      />
      <path
        d="m 12324,17200.6 c 16.8,-17.1 28.2,-23.1 38.2,-25.4 17.3,-4.1 513.4,13 532.2,30.5 2,1.8 12.2,-1 14.4,1.4 18.4,19.3 41.7,52.8 40.5,67.1 -1.3,16.1 -373.5,125.9 -399,159.3 0,0 -84.3,72.4 -175.4,16.1 0,0 -21.1,-109.9 -59.3,-185.1 -3,-5.9 3,-25.6 -0.3,-31.1 -9.3,-15.4 -3.9,-19.8 8.7,-32.8"
        style="fill: #1a1a1a; fill-opacity: 1; fill-rule: nonzero; stroke: none"
        id="path690"
      />
      <path
        d="m 12311.7,17199.4 c 16.7,-17.2 38.5,-37.9 48.5,-40.3 17.4,-4.1 523.5,24.1 542.2,41.6 2,1.8 4.2,4 6.4,6.4 -130.4,9.2 -442.5,33.2 -593.2,57.4 -3,-5.9 -6.1,-11.5 -9.4,-17 -9.4,-15.4 -7.2,-35.1 5.5,-48.1"
        style="fill: #fee2b3; fill-opacity: 1; fill-rule: nonzero; stroke: none"
        id="path692"
      />
      <path
        d="m 13573.7,17436.2 c 0,0 118.8,265.5 136.4,302.6 17.6,37.1 -276.1,156.4 -276.1,156.4 0,0 25,-280.4 -11.1,-397.6 -36.1,-117.2 -23.5,-149.6 -23.5,-149.6 l 174.3,88.2"
        style="fill: #364f6b; fill-opacity: 1; fill-rule: nonzero; stroke: none"
        id="path694"
      />
      <path
        d="m 13348.3,17257.5 c 14.7,-18.9 31.1,-33.3 40.8,-36.8 16.8,-6 494.2,-36.7 514.8,-21.4 2.2,1.6 20,-4.5 22.5,-2.4 20.5,17.1 47.3,47.8 47.7,62.2 0.5,16.1 -357.1,166.8 -378.6,202.9 0,0 -75.8,81.3 -172.6,35.6 0,0 -33.2,-106.9 -79.6,-177.3 -3.6,-5.6 -7.4,-10.8 -11.3,-15.9 -11,-14.3 5.1,-32.6 16.3,-46.9"
        style="fill: #1a1a1a; fill-opacity: 1; fill-rule: nonzero; stroke: none"
        id="path696"
      />
      <path
        d="m 13332.1,17256 c 14.7,-18.9 34.1,-42 43.8,-45.5 16.7,-6 522.8,-34.6 543.4,-19.3 2.2,1.6 4.6,3.6 7.1,5.7 -128.6,23.7 -436.1,82.5 -583.1,123.4 -3.6,-5.6 -7.4,-10.8 -11.3,-15.9 -11,-14.3 -11,-34.1 0.1,-48.4"
        style="fill: #fee2b3; fill-opacity: 1; fill-rule: nonzero; stroke: none"
        id="path698"
      />
      <path
        d="m 14920.1,21462.3 c 0,0 168.8,-321.4 -42.8,-597.2 0,0 -136.6,206.2 -85.7,364.2 50.8,158 66.9,203.5 128.5,233"
        style="fill: #000000; fill-opacity: 1; fill-rule: nonzero; stroke: none"
        id="path700"
      />
      <path
        d="m 11958.5,17744.2 c 578.5,60.3 843.5,-192.7 843.5,-192.7 66.6,109.8 143.7,437.2 208.4,765.4 58,293.3 106.1,587.1 128.1,726.1 8.4,52.5 13,83 13,83 l 100.7,-134.4 116.2,-154.9 c -8.1,-321.3 -373.6,-1184.8 -373.6,-1184.8 594.5,148.5 819.4,-60.3 819.4,-60.3 66.1,67.9 167.6,302.6 257.6,542.2 106.7,283.8 197.4,574.5 194.9,602.4 -14.7,170.8 -682.7,1124.7 -755,1312.1 -72.4,187.5 -99.2,337.4 -99.2,337.4 -5.8,7.5 -11.7,14.7 -17.5,21.7 -384.6,460.1 -919.7,101.6 -919.7,101.6 0,0 -21.4,-980 -64.2,-1360.4 -42.8,-380.2 -452.6,-1404.4 -452.6,-1404.4"
        style="fill: #1a1a1a; fill-opacity: 1; fill-rule: nonzero; stroke: none"
        id="path702"
      />
      <path
        d="m 12968.7,22126.3 c 0,0 10.3,-94.4 -47.5,-160.6 -57.9,-66.4 -23.7,-118.6 -14.8,-125.6 9,-7 271.1,-13 271.1,-13 l 13.3,31.4 17.8,41.9 -33.1,37.2 c 0,0 -7.3,8.1 -12.8,32.9 -4.2,18.9 -7.2,47.5 -4.8,89.9 l 0.1,-0.4 c 1.6,-1.2 28,-24.3 67.2,-58.7 35.3,-30.9 93.5,102.3 90.9,165.1 -2.7,63 -6.7,87.2 -6.7,87.2 0,0 24,-8.1 53.7,7 8.4,4.2 12.5,13.9 8.9,22.7 -11.6,29.3 -49.5,80.6 -32.3,149.1 2,8.1 4.8,16.6 8.6,25.3 23.7,55.2 -191.7,115.8 -338.7,93.9 -77,-11.5 -135.1,-45.6 -130.3,-115 14.1,-201.8 89.4,-310.3 89.4,-310.3"
        style="fill: #364f6b; fill-opacity: 1; fill-rule: nonzero; stroke: none"
        id="path704"
      />
      <path
        d="m 12802,17551.5 c 0,0 -60.8,58 -187.7,111.9 -14.9,6.3 -30.7,12.6 -47.4,18.7 84.9,254.6 184.3,321.2 184.3,321.2 -191.9,-62.2 -368.6,-147.3 -527.3,-252.6 -29.2,1.8 -59.6,2.8 -91.2,2.8 -54.5,0 -112.6,-2.9 -174.2,-9.3 0,0 409.8,1024.2 452.6,1404.4 19.1,170.1 34,460.1 44.5,728.8 94.7,7.4 174.7,30.5 241.1,60.5 0.3,-0.7 0.7,-1.4 1.1,-2.1 -26.9,-154 -12,-312.3 -12.5,-468.8 -0.9,-297.6 -58.8,-594.7 -169.6,-870.9 -61.8,-153.8 -139.5,-331.1 -58.6,-476.1 42.2,-75.7 126.6,-126.3 213.4,-127.9 1.4,0 2.8,0 4.2,0 85.4,0 169.5,47 213.9,120 33.1,54.6 44.9,121 83.8,171.8 10,13 23.3,24.2 38,33 -16.9,-85.8 -34.6,-171.5 -52.8,-253.2 -10.6,-47.8 -21.4,-94.2 -32.3,-138.6 -41.6,-170.2 -84.3,-309.3 -123.3,-373.6 m 100.5,2743.1 -32.5,81.1 -49.2,122.5 c 0,0 39.4,6.1 104,6.1 105.6,0 278.3,-16.3 455.6,-102.3 -20.4,-7.3 -40.2,-13 -58.7,-16.8 -112.4,-22.9 -231.5,-7 -340.3,-48.5 -28.4,-10.8 -54.7,-25 -78.9,-42.1"
        style="fill: #131313; fill-opacity: 1; fill-rule: nonzero; stroke: none"
        id="path706"
      />
      <path
        d="m 12958.7,20154.2 c 0,0 -168.7,-283.3 -576.4,-279.3 0,0 40.1,197.1 299.2,279.3 259.1,82.3 277.2,0 277.2,0"
        style="fill: #000000; fill-opacity: 1; fill-rule: nonzero; stroke: none"
        id="path708"
      />
      <path
        d="m 14760.3,21309.5 c 1.1,-33.6 8.5,-67.8 12.8,-101.1 2.2,-16.4 4.6,-33.2 13.9,-46.8 13,-18.8 36.9,-26.9 59.6,-28.5 12.9,-0.7 25.8,0.2 38.7,1.1 9.8,0.7 19.7,1.4 29.5,1.3 49.4,-0.5 96.5,-20 139,-45 7.7,-4.5 15.3,-9.2 22.8,-14 33.9,-21.9 66.3,-46 100.8,-66.6 55.9,-33.4 117.4,-57.3 181,-70.6 14.6,-3.1 24.1,12.7 17.7,23.7 -1,1.8 -2.4,3.5 -4.4,4.9 -30,22.2 -62.8,40.6 -97.3,54.7 2.6,-1 5.1,-1.9 7.8,-2.7 55.6,-19.4 111.4,-38.7 167,-57.9 11.8,-4.3 27.8,-7.2 35.1,3.1 4.9,7 2.7,17.3 -3,23.9 -5.4,6.5 -13.5,10.3 -21.4,13.9 -47.9,22 -96,44 -144,66.2 58.3,-20.8 116.6,-41.5 174.7,-62.3 15.4,-5.5 36.8,-8.8 44.2,5.8 4.3,8.2 0.9,18.9 -5.7,25.6 -6.4,6.7 -15.3,10.4 -23.8,14 -56.1,23.3 -112.2,46.6 -168.1,69.9 49.3,-16.8 98.7,-33.6 148.1,-50.3 15.7,-5.5 36.3,-9.7 46.8,3.4 8.3,10.5 4.4,26.7 -5.1,36.2 -9.6,9.4 -22.8,13.6 -35.7,17.5 -81.7,24.9 -163.5,49.9 -245.2,74.7 30.9,-6.6 62.3,-10.5 94,-11.9 8.3,-0.3 16.9,-0.4 24.6,2.7 7.6,3.3 14.2,10.8 13.6,19 -0.7,11.4 -13,18 -23.5,22.4 -59.3,24.2 -123.2,49 -185.7,35.1 -27.2,-5.9 -52.3,-18.9 -79.4,-25.6 -55.4,-13.9 -118.8,12.7 -169.6,38.9 -7.5,3.9 -14.7,7.2 -21.4,10.1 -18.2,8.3 -34.3,15 -52.5,28.9 -16.4,12.5 -35.7,24.9 -57.4,23 -21.4,-1.9 -29.1,-16.7 -28.5,-36.7"
        style="fill: #364f6b; fill-opacity: 1; fill-rule: nonzero; stroke: none"
        id="path710"
      />
      <path
        d="m 15076.6,21076.5 c -7.5,4.8 -15.1,9.5 -22.8,14 -23.1,13.6 -47.5,25.5 -73,33.7 -21.4,6.9 -43.4,11.1 -66,11.3 -0.5,0 -0.9,0 -1.4,0 -9.4,0 -18.7,-0.7 -28.1,-1.3 -9.4,-0.7 -18.9,-1.4 -28.3,-1.4 -1.3,0 -2.6,0.1 -3.9,0.1 -0.1,9 -0.2,18.1 -0.2,27.2 0,51.6 2.8,104.1 10.2,151.8 11.7,-7 23.2,-11.9 35.6,-17.6 -0.8,-13.5 -1.6,-27.1 0.8,-40.4 7.8,-44.1 46.7,-74.8 84.4,-98.9 34.5,-22 72.1,-43.9 92.7,-78.5"
        style="fill: #283a4e; fill-opacity: 1; fill-rule: nonzero; stroke: none"
        id="path712"
      />
      <path
        d="m 12901.1,19650.5 c 0,0 64.9,-14.6 99.8,24.9 0,0 1.3,17.4 -18.1,18.7 -19.4,1.4 -73,-20 -112.5,0 v -31.4 l 30.8,-12.2"
        style="fill: #364f6b; fill-opacity: 1; fill-rule: nonzero; stroke: none"
        id="path714"
      />
      <path
        d="m 12887.2,19697.5 c 0,0 69.5,-96.6 104.6,-106.7 35.1,-10 57.2,-15 64.3,-27.1 3.8,-6.6 6.2,-18.9 7.5,-28.7 1,-7.5 -5.3,-13.9 -12.8,-12.9 -19.3,2.5 -54.3,8.6 -77.4,21.5 0,0 -76.7,43.8 -86.2,65.4 -9.5,21.7 0,88.5 0,88.5"
        style="fill: #364f6b; fill-opacity: 1; fill-rule: nonzero; stroke: none"
        id="path716"
      />
      <path
        d="m 12948.6,19609.8 c 0,0 64.9,-14.6 99.8,24.9 0,0 1.3,17.4 -18.1,18.7 -19.4,1.4 -73,-20.1 -112.5,0 v -31.4 l 30.8,-12.2"
        style="fill: #364f6b; fill-opacity: 1; fill-rule: nonzero; stroke: none"
        id="path718"
      />
      <path
        d="m 12583,20130 c 0,0 115.6,-184.3 151.2,-266.5 4.9,-11 8.2,-20.3 9.6,-26.8 12,-56.4 185.7,-399.4 199.7,-403.5 14.1,-4.1 15.2,39.2 15.2,58.3 0,6.5 -12.5,38.3 -27.6,78.5 -9.6,24.9 -19.9,53 -29.3,80.3 -4.2,12.7 -8.1,25.2 -11.7,37 -0.9,3.3 -1.8,6.6 -2.8,9.7 v 0.2 c -10.9,39.2 -15.8,71.2 -5.9,81.4 30.1,31.2 79.3,-46.1 83.2,-50.2 4.1,-4 46.3,-19 55.3,-14 9.1,5 -75.3,134.5 -85.4,140.6 -10,5.9 -82.3,54.2 -102.3,74.3 -11.9,11.7 -32.7,116.8 -47.8,201.7 -10.6,59.8 -18.6,109.5 -18.6,109.5 L 12583,20130"
        style="fill: #364f6b; fill-opacity: 1; fill-rule: nonzero; stroke: none"
        id="path720"
      />
      <path
        d="m 12734.2,19863.5 v 0 c -22.7,52.4 -77.9,146.4 -114.9,207.6 48.7,27.4 103.8,51.5 163.8,66.8 0.5,-2.3 0.9,-4.6 1.3,-6.9 -22.8,-17.5 -46.4,-36.3 -58.1,-62.4 -12.8,-28.4 -9.9,-61.2 -3.6,-91.8 6.2,-30.5 15.5,-60.8 14.4,-92 -0.2,-7 -1.1,-14.2 -2.9,-21.3"
        style="fill: #283a4e; fill-opacity: 1; fill-rule: nonzero; stroke: none"
        id="path722"
      />
      <path
        d="m 12207.5,20692.3 c 20.2,-104.3 202.9,-431.7 174.8,-817.4 0,0 241,303.4 576.4,279.3 l -88.7,221.5 -49.2,122.5 c 0,0 294.6,45.6 591.7,-112.5 0,0 -35.2,57.5 -30.2,172.5 1.1,23.2 3.8,48.9 8.8,76.7 12.5,70.4 29.3,186.5 44.5,301.4 20.3,155.8 37.5,309.6 35.9,346.5 v 0.6 c 0,18.6 42.7,2 102.3,-30 137.8,-74.6 366.3,-233 366.3,-233 0,0 939.9,-163.3 937.2,-155.3 -2.8,8 -75,463.3 42.8,597.2 0,0 -108.8,14.7 -259.6,30 -170.7,17.3 -395.2,35.6 -575.9,34.2 0,0 -570.3,273.1 -696.2,316 -125.9,42.8 -171.3,95.1 -212.9,95.1 0,0 -9.4,-55 -41.4,-49.5 -32.2,5.3 -190.2,76.2 -212.9,77.6 -5.9,0.3 -9.2,-0.5 -11.9,-2.8 -7.3,-5.8 -10,-21.4 -56.3,-48.1 -63,-36.1 -121.9,-32.2 -187.5,-88.4 -65.6,-56.3 -251.8,-353.5 -458,-1076.4 0,0 -20,46.8 0,-57.7"
        style="fill: #fc5185; fill-opacity: 1; fill-rule: nonzero; stroke: none"
        id="path724"
      />
      <path
        d="m 13412.5,20385.7 c -10.7,5.7 -21.4,11.1 -32.1,16.3 -177.3,86 -350,102.3 -455.6,102.3 -64.6,0 -104,-6.1 -104,-6.1 v 0 0 c 0,0 -96.4,230.4 -99.1,270.5 -2.8,39.5 209.4,699.5 216.7,722.3 -3.6,-19.5 -99.3,-543.3 -85.4,-695.6 14,-155.2 -18.8,-130.2 155.2,-153.4 126.4,-16.8 265.4,-39.8 374.1,-83.8 -0.3,-7.7 -0.5,-15 -0.5,-22.2 0,-100.2 30.7,-150.3 30.7,-150.3"
        style="fill: #b83b61; fill-opacity: 1; fill-rule: nonzero; stroke: none"
        id="path726"
      />
      <path
        d="m 13162.7,21970.5 c -47.3,51.9 -64.8,139.7 -64.8,139.7 l 60,-49.8 c -0.6,-10.3 -0.9,-19.7 -0.9,-28.4 0,-27.3 2.5,-47.1 5.7,-61.5"
        style="fill: #283a4e; fill-opacity: 1; fill-rule: nonzero; stroke: none"
        id="path728"
      />
      <path
        d="m 12977.4,22126.4 -14,77 -2,11.3 c -45.7,17.3 -69.7,113.9 -26.9,133.8 5.8,2.8 11.5,4 17,4 30.8,0 55.7,-36.8 61.4,-46.1 v 0 0 c -7.5,14.3 -49.5,99.6 0.6,156 15.1,16.9 31.3,23 50.8,23 25.6,0 57,-10.5 99.2,-21 42.3,-10.4 95.5,-20.9 164.7,-20.9 1.4,0 2.9,0 4.3,0 3.6,0 7.1,0.2 10.5,0.4 -1.3,-3.9 -2.4,-7.7 -3.3,-11.5 v 0 c -18.5,-9.3 -43.1,-15.6 -75.4,-15.6 -9.5,0 -19.7,0.6 -30.5,1.7 -78.2,8.3 -127,19.3 -156.5,19.3 -27.7,0 -38.4,-9.7 -40.3,-40.4 -3.8,-59 25.7,-124.9 37,-147.4 l 2.2,-4.2 c 0,0 -32.9,19.9 -52,43.1 -23.3,17.6 -48.7,34 -62.5,34 -2.6,0 -4.7,-0.6 -6.4,-1.8 -21.4,-15.4 14.1,-80.3 28.1,-87.7 13.8,-7.2 -5.3,-103.6 -6,-107"
        style="fill: #283a4e; fill-opacity: 1; fill-rule: nonzero; stroke: none"
        id="path730"
      />
      <path
        d="m 12788.6,22451.6 c -2.7,-203.5 188.8,-325.3 188.8,-325.3 l -14,77.1 -2,11.3 c -45.7,17.3 -69.7,113.9 -26.9,133.8 38.3,18 71.7,-31.2 78.4,-42.1 -7.5,14.3 -49.5,99.6 0.6,156 34.8,39 75.5,20.5 150,2 43.2,-10.6 97.7,-21.3 169,-20.9 194.5,1.1 76.1,314.8 76.1,314.8 -44.3,-69.7 -142,-33.5 -142,-33.5 44.2,40.2 40.1,128.6 40.1,128.6 0,0 -3.9,-6.9 -11.7,-17.5 -27.6,-38.4 -104.2,-126.2 -226.5,-127.2 -156.7,-1.3 -277.2,-53.5 -279.9,-257.1"
        style="fill: #1a1a1a; fill-opacity: 1; fill-rule: nonzero; stroke: none"
        id="path732"
      />
      <path
        d="m 12382.3,19874.9 c 2,27.2 2.9,54 3,80.5 0.2,350.1 -159,639.9 -177.8,736.9 -6.6,34.9 -8.9,52.9 -8.8,61.5 0,4.9 0.7,6.7 1.8,6.7 2.6,0 7,-10.5 7,-10.5 206.2,722.9 392.4,1020.1 458,1076.4 65.6,56.2 124.5,52.3 187.5,88.4 46.3,26.7 49,42.3 56.3,48.1 v 0 0 0 c 0,0 9.3,-55.5 -125.4,-143.9 -134.5,-88.4 -243,-359.4 -279.1,-514 -36.1,-154.7 -168.7,-429.9 -148.6,-552.4 20,-122.4 120.5,-319.2 130.5,-401.6 5,-41 82,-64.1 165.1,-64.1 84,0 174.1,23.6 202.4,76.2 3.4,6.4 8.8,10.4 15.8,12.6 l 88.7,-221.5 c -12.8,1 -25.4,1.4 -37.9,1.4 -48.2,0 -94.3,-6.6 -137.7,-17.7 -60,-15.3 -115.1,-39.4 -163.8,-66.8 v 0 c -146.8,-82.7 -237,-196.2 -237,-196.2"
        style="fill: #b83b61; fill-opacity: 1; fill-rule: nonzero; stroke: none"
        id="path734"
      />
      <path
        d="m 14875.9,20864.8 v 0 0 0 m -1308.8,392.2 c -0.1,0.1 -0.3,0.1 -0.4,0.2 0.1,-0.1 0.3,-0.1 0.4,-0.2 m -1.9,1 c -1.2,0.6 -2.3,1.2 -3.4,1.8 1.1,-0.6 2.2,-1.2 3.4,-1.8 m -5.6,2.9 c -0.3,0.2 -0.5,0.3 -0.7,0.4 0.2,-0.1 0.4,-0.2 0.7,-0.4 m -69.9,29.3 c -0.4,0.1 -0.8,0.2 -1.2,0.3 0.4,-0.1 0.8,-0.2 1.2,-0.3 m -2.3,0.5 h -0.1 0.1 m -6.1,0.5 c 0.1,0 0.1,0 0.2,0 v 0 c -0.1,0 -0.1,0 -0.2,0"
        style="fill: #baadad; fill-opacity: 1; fill-rule: nonzero; stroke: none"
        id="path736"
      />
      <path
        d="m 14875.9,20864.8 c -39.6,0 -915,152 -935.4,155.5 -0.3,0.1 -0.4,0.1 -0.4,0.1 0,0 -228.5,158.4 -366.3,233 v 0 c -2.2,1.2 -4.5,2.4 -6.7,3.6 -0.1,0.1 -0.3,0.1 -0.4,0.2 -0.5,0.3 -1,0.5 -1.5,0.8 -1.2,0.6 -2.3,1.2 -3.4,1.8 -0.8,0.4 -1.5,0.8 -2.2,1.1 -0.3,0.2 -0.5,0.3 -0.7,0.4 -29.5,15.2 -53.7,25.8 -69.2,28.9 -0.4,0.1 -0.8,0.2 -1.2,0.3 -0.4,0 -0.7,0.1 -1.1,0.2 h -0.1 c -2.1,0.3 -4.1,0.5 -5.8,0.5 v 0 0 c -0.1,0 -0.1,0 -0.2,0 -6.3,0 -9.8,-2.5 -9.8,-7.8 v 0 c -0.3,15 -7.5,289.1 -72,432.7 l -0.2,0.3 c 1.9,-1.4 27.5,-20 59.2,-71.1 96,-112.9 288.1,-328.5 419.9,-408 182.1,-109.8 237.6,-109.8 391.9,-117.7 7.7,-0.5 15.9,-0.7 24.5,-0.7 154.4,0 438.1,69.6 365.7,373.4 150.8,-15.3 259.6,-30 259.6,-30 -52.4,-59.6 -67.2,-183 -67.2,-302.2 0,-148.5 22.9,-290.6 24.4,-295 0.1,-0.2 -0.4,-0.3 -1.4,-0.3 v 0"
        style="fill: #b83b61; fill-opacity: 1; fill-rule: nonzero; stroke: none"
        id="path738"
      />
      <path
        d="m 13181.9,21817 c -66.6,0 -272.6,145.9 -272.6,145.9 v 0 c 2.3,2 5.1,2.9 9.6,2.9 0.8,0 1.5,-0.1 2.3,-0.1 22.7,-1.4 180.7,-72.3 212.9,-77.6 1.5,-0.3 3,-0.4 4.4,-0.4 28.5,0 37,49.9 37,49.9 0,0 46.9,-54.9 25.5,-110.5 -2.7,-7 -9.5,-10.1 -19.1,-10.1"
        style="fill: #b83b61; fill-opacity: 1; fill-rule: nonzero; stroke: none"
        id="path740"
      />
      <path
        d="m 13814.2,17591.6 c 0,0 -42.3,39.3 -138.6,71.6 -57.6,19.4 -134.5,36.2 -233.2,40.8 -17.1,0.8 -34.9,1.2 -53.4,1.2 -107.7,0 -238.3,-14.3 -394.2,-53.3 0,0 365.5,863.5 373.6,1184.8 v 0 0 l -116.2,154.9 -79.7,106.4 -21,28 c 0,0 -4.6,-30.5 -13,-83 0.1,46.7 3.9,93.3 13.3,140 47.1,235.1 2.2,471.7 11.7,709.6 58.6,-229.3 153.1,-372.4 262.4,-537.8 109.3,-165.3 173.7,-341.8 206.3,-537.2 23.5,-141 -1.7,-286.8 -49.8,-421.2 -48.3,-134.7 -118.9,-260 -189,-384.5 19.8,18.5 46.1,25.5 73.5,25.5 21.7,0 44,-4.4 64.4,-10.8 46,-14.4 90.5,-37.5 138.5,-37.5 0.5,0 1,0 1.5,0 73.2,0.5 133.5,54.1 192.3,98.1 43.3,32.5 97.3,61.8 149.1,61.8 18.3,0 36.3,-3.7 53.5,-12.1 1.8,-0.9 3.7,-1.9 5.6,-3.1 -90,-239.6 -191.5,-474.3 -257.6,-542.2"
        style="fill: #131313; fill-opacity: 1; fill-rule: nonzero; stroke: none"
        id="path742"
      />
      <path
        d="m 12977.4,22126.3 c 0,0 -188.5,119.9 -188.8,320.6 0,1.5 0,3.1 0,4.7 2.7,203.6 123.2,255.8 279.9,257.1 122.3,1 198.9,88.8 226.5,127.2 -5,-11.7 -10.6,-23.3 -17.5,-34.4 -19.7,-31.7 -45.9,-57.9 -77,-78.5 -57.3,-36.9 -127,-48.8 -187.9,-79.1 -78.1,-38.9 -141.2,-111.3 -158.6,-196.9 -17.4,-85.5 15.7,-181.9 88,-230.6 6.9,-4.5 14,-8.9 21.4,-13 l 14,-77.1"
        style="fill: #131313; fill-opacity: 1; fill-rule: nonzero; stroke: none"
        id="path744"
      />
      <path
        d="m 46212.7,16465.2 c 22.1,-727.4 -521.7,-1404.9 -1146.2,-1859.6 -624.5,-454.8 -477.5,-866.3 -477.5,-866.3 l -23.9,-3.9 -226,-37.2 c 0,0 -363.6,677.6 134.1,1421.1 433,646.7 483.8,825.3 586.4,1349.3 15.4,78.4 31.9,164.5 51,261.1 147,742.1 653.9,1306.4 1381.3,1542.3 0,0 -404.1,-271.2 -279.2,-1806.8"
        style="fill: #2cbf7b; fill-opacity: 1; fill-rule: nonzero; stroke: none"
        id="path746"
      />
      <path
        d="m 43997.3,13593.1 -0.1,-0.1 c -21.6,-32.2 -35.6,-49.2 -35.6,-49.2 l -221.5,83.6 -15.4,5.8 c 0,0 2.6,4.2 6.5,12.4 11,23.2 32.9,78.2 39.6,160.2 9.8,119 -12.3,294.9 -146.1,512.8 -25.3,41.1 -54.5,83.8 -88.3,127.8 -32.3,42.1 -68.6,85.5 -109.6,130 -522.9,568.8 -922.8,1339.9 -758.2,2048.7 424.4,1481.1 81.5,1826.5 81.5,1826.5 666.8,-374.3 1053,-1027.3 1051.1,-1783.8 -1.1,-444.4 -12.5,-669.5 47.7,-947.3 9,-42.2 19.9,-85.7 32.6,-131.4 46.1,-165 117.6,-358.5 228,-625.6 70.9,-171.6 106.1,-333 117.2,-481.2 33.4,-445.1 -149.6,-770.5 -229.4,-889.2"
        style="fill: #2da66d; fill-opacity: 1; fill-rule: nonzero; stroke: none"
        id="path748"
      />
      <path
        d="m 44099,13981.8 h -338.1 c -17.8,95.8 -57.8,209.1 -136.2,336.8 -25.3,41.1 -54.5,83.8 -88.3,127.8 v 0 c -11.7,344.8 59.6,660.5 158.2,864.9 69.2,143.7 119.3,288.8 154.3,409.2 9,-42.2 19.9,-85.7 32.6,-131.4 46.1,-165 117.6,-358.5 228,-625.6 69.3,-167.7 104.5,-325.7 116.4,-471.1 -1.4,-9.7 -2.8,-19.4 -4,-29.1 -41.8,-167 -85.4,-336.8 -122.9,-481.5"
        style="fill: #258e66; fill-opacity: 1; fill-rule: nonzero; stroke: none"
        id="path750"
      />
      <path
        d="m 44413.9,13725.2 c -11.8,0 -21.4,9.6 -21.4,21.4 0,370.8 150.3,766.6 459.6,1210.1 56.4,80.9 117.3,160.3 176.1,237.1 135.4,176.6 275.4,359.1 367.4,569.1 74.2,169.5 69.3,339.7 64,519.9 -2.8,97.5 -5.8,198.4 5,299.1 50.8,474.4 193.5,801.2 462.7,1059.6 8.6,8.2 22.1,7.9 30.3,-0.6 8.2,-8.5 8,-22.1 -0.6,-30.3 -261.4,-250.9 -400.1,-569.6 -449.7,-1033.3 -10.5,-97.8 -7.6,-197.2 -4.8,-293.3 5.1,-177 10.4,-359.9 -67.7,-538.2 -94,-214.8 -235.6,-399.5 -372.5,-578.1 -58.6,-76.4 -119.2,-155.4 -175.1,-235.5 -304,-436.1 -451.8,-823.9 -451.8,-1185.6 0,-11.8 -9.6,-21.4 -21.5,-21.4"
        style="fill: #033a3f; fill-opacity: 1; fill-rule: nonzero; stroke: none"
        id="path752"
      />
      <path
        d="m 43983.5,13378.9 c -1.5,0 -3.1,0.2 -4.7,0.5 -11.5,2.6 -18.8,14 -16.3,25.6 95.8,434.5 -91.4,886.1 -240.6,1187.9 -41.9,84.9 -86.8,170.6 -130.3,253.6 -148.5,283.4 -302,576.5 -368.9,894.4 -62.2,295.7 -47.3,602.9 -33,900.1 2.4,49 4.8,99.8 6.9,149.5 14.2,343.8 8.4,705.4 -129,1020.6 -4.7,10.9 0.3,23.5 11.1,28.2 10.9,4.7 23.5,-0.2 28.2,-11.1 140.8,-323.1 146.9,-690.6 132.5,-1039.5 -2.1,-49.9 -4.5,-100.7 -6.9,-149.8 -14.2,-294.4 -28.9,-598.9 32.2,-889.1 65.6,-312.2 217.8,-602.6 364.9,-883.4 43.6,-83.2 88.6,-169.2 130.8,-254.5 109,-220.7 182.8,-414.7 225.6,-593 54.6,-227.5 60.6,-431.4 18.4,-623.2 -2.2,-10 -11.1,-16.8 -20.9,-16.8"
        style="fill: #033a3f; fill-opacity: 1; fill-rule: nonzero; stroke: none"
        id="path754"
      />
      <path
        d="m 44512.3,13981.8 h -56.7 c 20.4,120.2 56.2,243.5 107.8,370.9 -19.5,-68.4 -31.6,-128.6 -39.1,-179.3 -10.6,-72 -13.7,-136.5 -12,-191.6"
        style="fill: #25a373; fill-opacity: 1; fill-rule: nonzero; stroke: none"
        id="path756"
      />
      <path
        d="m 44412.1,13981.8 h -168.6 c -12.1,56 -22.1,118.9 -27.8,187.5 14.1,95.8 19.4,200.6 11,313 -0.3,3.4 -0.5,6.8 -0.8,10.1 28.2,192.7 100,406.9 247.3,626.9 433,646.7 483.8,825.3 586.4,1349.3 2.1,-11.6 4.2,-22.8 6.2,-33.9 5.3,-28.3 10.3,-55.1 14.1,-81.2 1.4,-9.2 3,-19.3 4.7,-30.1 17.3,-112.6 49.6,-322 26.9,-575.9 -23.6,-264.7 -100.9,-516 -229.9,-749.1 -9.9,-13.8 -19.8,-27.7 -29.5,-41.7 -244.8,-351.1 -390.1,-672.4 -440,-974.9"
        style="fill: #25a373; fill-opacity: 1; fill-rule: nonzero; stroke: none"
        id="path758"
      />
      <path
        d="m 44215.7,14169.3 c -7.3,89.3 -7,188.2 6.2,294 1.6,6.3 3.2,12.7 4.8,19 -0.3,3.4 -0.5,6.8 -0.8,10.1 v 0 c 0.3,-3.3 0.5,-6.7 0.8,-10.1 8.4,-112.4 3.1,-217.2 -11,-313 v 0"
        style="fill: #258e66; fill-opacity: 1; fill-rule: nonzero; stroke: none"
        id="path760"
      />
      <path
        d="m 44221.9,14463.3 c 1.2,9.7 2.6,19.4 4,29.1 0.3,-3.3 0.5,-6.7 0.8,-10.1 -1.6,-6.3 -3.2,-12.7 -4.8,-19"
        style="fill: #1f795f; fill-opacity: 1; fill-rule: nonzero; stroke: none"
        id="path762"
      />
      <path
        d="m 44455.6,13981.8 h -43.5 c 49.9,302.5 195.2,623.8 440,974.9 9.7,14 19.6,27.9 29.5,41.7 -22.7,-41 -47,-81.4 -72.8,-121.2 -130.9,-201.3 -204.4,-380.8 -245.4,-524.5 -51.6,-127.4 -87.4,-250.7 -107.8,-370.9"
        style="fill: #02323b; fill-opacity: 1; fill-rule: nonzero; stroke: none"
        id="path764"
      />
      <path
        d="m 43980.4,13820.1 c 0,0 -426.1,639.3 44.1,1565 213.1,609.9 -161.6,1344.6 36.8,2020.6 198.3,675.9 874.3,639.2 1058,1388.6 l 117.5,411.5 c 0,0 338,-1036 -146.9,-1800.1 -352.7,-521.7 -227.8,-881.7 -198.4,-1080.1 29.4,-198.4 139.6,-756.8 -242.4,-1344.6 -382.1,-587.8 -360.1,-1072.7 -279.3,-1256.4 80.9,-183.7 -389.4,95.5 -389.4,95.5"
        style="fill: #027369; fill-opacity: 1; fill-rule: nonzero; stroke: none"
        id="path766"
      />
      <path
        d="m 44193.8,13510.2 h 0.1 z m 15.2,-21.6 c -5.2,0 -10.3,1.9 -14.3,5.5 -76,67.6 -101.1,243.8 -117.8,360.4 -2.6,18.3 -5.1,35.5 -7.4,50.2 -16.4,102.3 -8.3,205.7 -0.4,305.8 2.9,36.2 5.8,73.7 7.5,110 7.7,170.3 19.2,313.9 90,480.9 18,42.4 37,85.3 55.3,126.7 45.6,102.9 92.8,209.4 127.7,316.9 98.9,304.4 117.4,675.4 50.6,1017.7 -90.5,464.3 -21.9,904.1 198.2,1272 55.6,92.9 119.1,179.9 180.4,263.9 120.8,165.7 234.9,322.1 290.5,516.7 3.2,11.3 15.1,17.9 26.5,14.7 11.4,-3.3 18,-15.1 14.7,-26.5 -57.7,-201.9 -174,-361.3 -297.1,-530.1 -60.8,-83.3 -123.6,-169.5 -178.2,-260.7 -214.7,-358.7 -281.4,-788.1 -192.9,-1241.8 69.1,-354.4 50.7,-723.4 -51.9,-1039.2 -35.6,-109.5 -83.2,-217 -129.3,-321 -18.3,-41.3 -37.2,-83.9 -55,-126 -68,-160.5 -79.2,-300.2 -86.7,-466.1 -1.7,-37 -4.7,-74.9 -7.5,-111.5 -7.7,-97.5 -15.7,-198.4 -0.1,-295.6 2.4,-15 4.9,-32.5 7.5,-50.9 14.2,-98.9 34.8,-243.2 85.1,-313.3 6.7,1.2 13.8,-0.7 18.9,-5.9 8.8,-8.7 12.7,-18.1 11.5,-28 -0.6,-5.1 -3.3,-14.7 -14.8,-21.7 -3.4,-2 -7.2,-3.1 -11,-3.1"
        style="fill: #033a3f; fill-opacity: 1; fill-rule: nonzero; stroke: none"
        id="path768"
      />
      <path
        d="m 44712.8,13981.8 h -1068 c -136.9,0 -238.5,-126.9 -208.7,-260.5 l 149,-667 c 21.9,-97.8 108.6,-167.3 208.7,-167.3 h 385 385 c 100.1,0 186.9,69.5 208.7,167.3 l 149,667 c 29.8,133.6 -71.8,260.5 -208.7,260.5"
        style="fill: #ffffff; fill-opacity: 1; fill-rule: nonzero; stroke: none"
        id="path770"
      />
      <path
        d="m 44667.7,12914 v 0 0 m 0.8,0.4 c 0.1,0.1 0.2,0.1 0.3,0.2 -0.1,-0.1 -0.2,-0.1 -0.3,-0.2 m 0.9,0.5 c 0.1,0.1 0.2,0.2 0.4,0.2 -0.2,0 -0.3,-0.1 -0.4,-0.2 m 0.9,0.5 c 0.2,0.1 0.3,0.2 0.5,0.3 -0.2,-0.1 -0.3,-0.2 -0.5,-0.3 m 0.9,0.5 c 0.2,0.1 0.4,0.3 0.6,0.4 -0.2,-0.1 -0.4,-0.3 -0.6,-0.4 m 0.9,0.5 c 0.2,0.2 0.5,0.4 0.7,0.5 -0.2,-0.1 -0.5,-0.3 -0.7,-0.5 m 0.8,0.6 c 0.3,0.1 0.6,0.3 0.9,0.5 -0.3,-0.2 -0.6,-0.4 -0.9,-0.5"
        style="fill: #d48a8f; fill-opacity: 1; fill-rule: nonzero; stroke: none"
        id="path772"
      />
      <path
        d="m 44726.8,12962.5 v 0 c 9.4,11 17.7,23.1 24.8,36 -7.1,-12.9 -15.4,-25 -24.8,-36"
        style="fill: #d4cbde; fill-opacity: 1; fill-rule: nonzero; stroke: none"
        id="path774"
      />
      <path
        d="m 44673.9,12917.5 c 19.9,12 37.8,27.2 52.9,45 v 0 c -15.1,-17.8 -33,-33 -52.9,-45"
        style="fill: #d48a8f; fill-opacity: 1; fill-rule: nonzero; stroke: none"
        id="path776"
      />
      <path
        d="m 43577.2,13089.6 v 0 l -141.1,631.7 v 0 0 l 141.1,-631.7"
        style="fill: #d4cbde; fill-opacity: 1; fill-rule: nonzero; stroke: none"
        id="path778"
      />
      <path
        d="m 43655.3,12937.9 c -34.5,29.3 -59.7,69.6 -70.2,116.3 l -7.9,35.4 v 0 l 7.9,-35.3 c 10.5,-46.8 35.7,-87 70.2,-116.4"
        style="fill: #d48a8f; fill-opacity: 1; fill-rule: nonzero; stroke: none"
        id="path780"
      />
      <path
        d="m 44751.7,12998.7 c 0.1,0.3 0.3,0.5 0.4,0.8 -0.1,-0.3 -0.3,-0.5 -0.4,-0.8 m 0.6,1.2 c 0.1,0.2 0.2,0.3 0.3,0.5 -0.1,-0.2 -0.2,-0.3 -0.3,-0.5 m 0.6,1.2 c 0.1,0 0.1,0.1 0.2,0.2 -0.1,-0.1 -0.1,-0.2 -0.2,-0.2"
        style="fill: #d4cbde; fill-opacity: 1; fill-rule: nonzero; stroke: none"
        id="path782"
      />
      <path
        d="m 44563.8,12887 h -769.9 c -52.3,0 -100.9,19 -138.6,50.9 -34.5,29.4 -59.7,69.6 -70.2,116.4 l -7.9,35.3 -141.1,631.7 v 0 c -29.8,133.6 71.8,260.5 208.8,260.5 h 1.1 c 40.6,-527.5 481.4,-942.8 1019.1,-942.8 35.5,0 70.4,1.9 104.9,5.4 -4.1,-15.2 -9.8,-29.6 -16.9,-43.1 -0.1,-0.1 -0.1,-0.2 -0.2,-0.2 -0.1,-0.3 -0.2,-0.5 -0.3,-0.7 -0.1,-0.2 -0.2,-0.3 -0.3,-0.5 -0.1,-0.1 -0.1,-0.3 -0.2,-0.4 -0.1,-0.3 -0.3,-0.5 -0.4,-0.8 -0.1,-0.1 -0.1,-0.1 -0.1,-0.2 -7.1,-12.9 -15.4,-25 -24.8,-36 -15.1,-17.8 -33,-33 -52.9,-45 -0.1,0 -0.1,0 -0.1,0 -0.3,-0.2 -0.6,-0.4 -0.9,-0.5 0,-0.1 0,-0.1 -0.1,-0.1 -0.2,-0.1 -0.5,-0.3 -0.7,-0.5 -0.1,0 -0.2,-0.1 -0.3,-0.1 -0.2,-0.1 -0.4,-0.3 -0.6,-0.4 -0.2,0 -0.3,-0.1 -0.4,-0.2 -0.2,-0.1 -0.3,-0.2 -0.5,-0.3 -0.2,-0.1 -0.4,-0.2 -0.5,-0.3 -0.2,0 -0.3,-0.1 -0.4,-0.2 -0.2,-0.1 -0.4,-0.2 -0.6,-0.3 -0.1,-0.1 -0.2,-0.1 -0.3,-0.2 -0.2,-0.1 -0.5,-0.3 -0.8,-0.4 v 0 c -30.9,-17.3 -66.5,-27 -103.9,-27"
        style="fill: #d4daee; fill-opacity: 1; fill-rule: nonzero; stroke: none"
        id="path784"
      />
      <path
        d="m 12472,16196.6 c 22.1,-727.5 -521.7,-1404.9 -1146.2,-1859.7 -624.5,-454.8 -477.5,-866.2 -477.5,-866.2 l -23.9,-3.9 -226,-37.2 c 0,0 -363.6,677.6 134.1,1421 433,646.8 483.8,825.4 586.4,1349.4 15.4,78.4 31.9,164.5 51,261.1 147,742.1 653.9,1306.4 1381.3,1542.2 0,0 -404.1,-271.2 -279.2,-1806.7"
        style="fill: #2cbf7b; fill-opacity: 1; fill-rule: nonzero; stroke: none"
        id="path786"
      />
      <path
        d="m 10256.6,13324.5 v -0.1 c -21.7,-32.2 -35.7,-49.2 -35.7,-49.2 l -221.43,83.6 -15.41,5.8 c 0,0 2.54,4.2 6.43,12.4 11.01,23.1 32.91,78.2 39.71,160.2 9.7,119 -12.4,294.8 -146.23,512.8 -25.26,41.1 -54.47,83.8 -88.26,127.8 -32.26,42.1 -68.58,85.5 -109.6,130 -522.9,568.7 -922.84,1339.9 -758.2,2048.7 424.4,1481.1 81.5,1826.5 81.5,1826.5 666.83,-374.3 1052.99,-1027.3 1051.09,-1783.8 -1,-444.4 -12.5,-669.5 47.7,-947.3 9.1,-42.2 19.9,-85.7 32.7,-131.4 46,-165 117.5,-358.5 227.9,-625.7 70.9,-171.5 106.1,-333 117.2,-481.1 33.5,-445.1 -149.6,-770.5 -229.4,-889.2"
        style="fill: #2da66d; fill-opacity: 1; fill-rule: nonzero; stroke: none"
        id="path788"
      />
      <path
        d="m 10358.3,13713.2 h -338.1 c -17.7,95.8 -57.8,209 -136.23,336.8 -25.26,41.1 -54.47,83.8 -88.26,127.8 v 0 c -11.68,344.7 59.65,660.5 158.21,864.9 69.18,143.6 119.38,288.8 154.28,409.2 9.1,-42.2 19.9,-85.7 32.7,-131.4 46,-165 117.5,-358.5 227.9,-625.7 69.3,-167.6 104.5,-325.6 116.4,-471 -1.4,-9.7 -2.7,-19.4 -3.9,-29 -41.9,-167.1 -85.4,-336.9 -123,-481.6"
        style="fill: #258e66; fill-opacity: 1; fill-rule: nonzero; stroke: none"
        id="path790"
      />
      <path
        d="m 10673.3,13456.6 c -11.9,0 -21.5,9.6 -21.5,21.4 0,370.8 150.4,766.6 459.6,1210.1 56.4,80.9 117.3,160.3 176.2,237.1 135.4,176.5 275.4,359.1 367.3,569.1 74.2,169.5 69.3,339.7 64,519.8 -2.8,97.6 -5.7,198.5 5.1,299.2 50.8,474.4 193.5,801.2 462.7,1059.6 8.5,8.2 22.1,7.9 30.3,-0.6 8.2,-8.6 7.9,-22.1 -0.6,-30.3 -261.4,-251 -400.2,-569.6 -449.8,-1033.3 -10.5,-97.8 -7.6,-197.2 -4.8,-293.3 5.1,-177 10.4,-360 -67.6,-538.3 -94.1,-214.7 -235.7,-399.4 -372.6,-578 -58.6,-76.4 -119.2,-155.4 -175,-235.5 -304.1,-436.1 -451.9,-823.9 -451.9,-1185.6 0,-11.8 -9.6,-21.4 -21.4,-21.4"
        style="fill: #033a3f; fill-opacity: 1; fill-rule: nonzero; stroke: none"
        id="path792"
      />
      <path
        d="m 10242.8,13110.3 c -1.5,0 -3.1,0.2 -4.6,0.5 -11.6,2.5 -18.9,14 -16.3,25.5 95.7,434.6 -91.5,886.1 -240.64,1188 -41.93,84.8 -86.87,170.6 -130.32,253.6 -148.48,283.4 -302,576.5 -368.9,894.4 -62.21,295.7 -47.37,602.9 -33.02,900.1 2.38,49 4.83,99.7 6.88,149.5 14.19,343.8 8.39,705.4 -128.95,1020.6 -4.73,10.8 0.23,23.5 11.08,28.2 10.86,4.7 23.48,-0.2 28.21,-11.1 140.81,-323.1 146.89,-690.6 132.48,-1039.5 -2.06,-49.9 -4.51,-100.7 -6.88,-149.8 -14.23,-294.4 -28.93,-598.9 32.14,-889.1 65.68,-312.2 217.8,-602.6 364.92,-883.4 43.58,-83.2 88.63,-169.2 130.8,-254.5 109,-220.7 182.8,-414.7 225.6,-593 54.7,-227.5 60.7,-431.4 18.4,-623.2 -2.2,-10 -11.1,-16.8 -20.9,-16.8"
        style="fill: #033a3f; fill-opacity: 1; fill-rule: nonzero; stroke: none"
        id="path794"
      />
      <path
        d="m 10771.7,13713.2 h -56.8 c 20.4,120.1 56.3,243.5 107.8,370.8 -19.4,-68.3 -31.6,-128.6 -39,-179.2 -10.7,-72 -13.8,-136.5 -12,-191.6"
        style="fill: #25a373; fill-opacity: 1; fill-rule: nonzero; stroke: none"
        id="path796"
      />
      <path
        d="m 10671.5,13713.2 h -168.7 c -12,56 -22.1,118.9 -27.7,187.6 14,95.7 19.4,200.5 10.9,312.9 -0.2,3.3 -0.5,6.7 -0.8,10.1 28.2,192.6 100,406.8 247.3,626.8 433,646.8 483.8,825.4 586.4,1349.4 2.1,-11.6 4.2,-22.9 6.3,-33.9 5.2,-28.3 10.2,-55.1 14.1,-81.2 1.3,-9.2 2.9,-19.3 4.6,-30.1 17.4,-112.6 49.6,-322.1 27,-575.9 -23.7,-264.7 -100.9,-516 -229.9,-749 -10,-13.9 -19.9,-27.8 -29.6,-41.8 -244.8,-351.1 -390.1,-672.4 -439.9,-974.9"
        style="fill: #25a373; fill-opacity: 1; fill-rule: nonzero; stroke: none"
        id="path798"
      />
      <path
        d="m 10475.1,13900.8 c -7.3,89.2 -7.1,188.2 6.2,294 1.6,6.3 3.1,12.6 4.7,18.9 -0.2,3.3 -0.5,6.7 -0.8,10.1 v 0 c 0.3,-3.4 0.6,-6.8 0.8,-10.1 8.5,-112.4 3.1,-217.2 -10.9,-312.9 v 0"
        style="fill: #258e66; fill-opacity: 1; fill-rule: nonzero; stroke: none"
        id="path800"
      />
      <path
        d="m 10481.3,14194.8 c 1.2,9.6 2.5,19.3 3.9,29 0.3,-3.4 0.6,-6.8 0.8,-10.1 -1.6,-6.3 -3.1,-12.6 -4.7,-18.9"
        style="fill: #1f795f; fill-opacity: 1; fill-rule: nonzero; stroke: none"
        id="path802"
      />
      <path
        d="m 10714.9,13713.2 h -43.4 c 49.8,302.5 195.1,623.8 439.9,974.9 9.7,14 19.6,27.9 29.6,41.8 -22.7,-41 -47,-81.5 -72.9,-121.3 -130.9,-201.4 -204.4,-380.9 -245.4,-524.6 -51.5,-127.3 -87.4,-250.7 -107.8,-370.8"
        style="fill: #02323b; fill-opacity: 1; fill-rule: nonzero; stroke: none"
        id="path804"
      />
      <path
        d="m 10239.8,13551.5 c 0,0 -426.19,639.2 44,1565 213.1,609.8 -161.6,1344.6 36.8,2020.5 198.4,676 874.3,639.3 1058,1388.7 l 117.6,411.5 c 0,0 337.9,-1036 -147,-1800.2 -352.7,-521.6 -227.8,-881.6 -198.4,-1080 29.4,-198.4 139.6,-756.8 -242.4,-1344.6 -382.1,-587.8 -360.1,-1072.7 -279.2,-1256.4 80.8,-183.7 -389.4,95.5 -389.4,95.5"
        style="fill: #027369; fill-opacity: 1; fill-rule: nonzero; stroke: none"
        id="path806"
      />
      <path
        d="m 10453.2,13241.6 v 0 z m 15.1,-21.6 c -5.2,0 -10.3,1.9 -14.3,5.4 -75.9,67.7 -101.1,243.9 -117.8,360.5 -2.6,18.3 -5,35.5 -7.4,50.2 -16.4,102.2 -8.2,205.7 -0.3,305.7 2.8,36.3 5.8,73.8 7.4,110.1 7.7,170.3 19.3,313.8 90,480.9 18,42.4 37,85.2 55.4,126.7 45.6,102.9 92.7,209.4 127.7,316.9 98.9,304.4 117.3,675.3 50.6,1017.7 -90.6,464.2 -22,904.1 198.1,1272 55.7,92.9 119.1,179.8 180.4,263.9 120.8,165.7 234.9,322.1 290.5,516.6 3.3,11.4 15.1,18 26.5,14.8 11.4,-3.3 18,-15.2 14.7,-26.5 -57.7,-201.9 -174,-361.3 -297.1,-530.1 -60.7,-83.3 -123.6,-169.5 -178.2,-260.7 -214.6,-358.7 -281.3,-788.1 -192.9,-1241.8 69.1,-354.4 50.7,-723.5 -51.9,-1039.2 -35.6,-109.6 -83.2,-217.1 -129.3,-321 -18.3,-41.3 -37.2,-84 -55,-126 -68,-160.5 -79.1,-300.2 -86.7,-466.1 -1.7,-37.1 -4.6,-74.9 -7.5,-111.5 -7.7,-97.6 -15.7,-198.4 -0.1,-295.6 2.4,-15.1 4.9,-32.5 7.6,-50.9 14.1,-99 34.7,-243.2 85,-313.3 6.7,1.2 13.8,-0.8 18.9,-5.9 8.9,-8.8 12.7,-18.2 11.5,-28 -0.6,-5.1 -3.3,-14.8 -14.7,-21.7 -3.5,-2.1 -7.3,-3.1 -11.1,-3.1"
        style="fill: #033a3f; fill-opacity: 1; fill-rule: nonzero; stroke: none"
        id="path808"
      />
      <path
        d="M 10972.1,13713.2 H 9904.17 c -136.91,0 -238.57,-126.9 -208.7,-260.5 l 148.99,-667.1 c 21.83,-97.7 108.57,-167.2 208.74,-167.2 h 384.9 385 c 100.2,0 186.9,69.5 208.7,167.2 l 149,667.1 c 29.9,133.6 -71.8,260.5 -208.7,260.5"
        style="fill: #ffffff; fill-opacity: 1; fill-rule: nonzero; stroke: none"
        id="path810"
      />
      <path
        d="m 10823.1,12618.4 h -769.9 v 0 h 769.9 c 0.4,0 0.8,0 1.2,0 -0.4,0 -0.8,0 -1.2,0 m 1.3,0 c 0.3,0 0.7,0 1,0 -0.3,0 -0.7,0 -1,0 m 1.1,0 c 0.7,0 1.5,0 2.3,0.1 -0.8,-0.1 -1.6,-0.1 -2.3,-0.1 m 2.3,0.1 c 0.4,0 0.8,0 1.1,0 -0.3,0 -0.7,0 -1.1,0 m 1.2,0 c 0.4,0 0.7,0 1.1,0 -0.4,0 -0.7,0 -1.1,0 m 1.1,0 c 52.8,1.7 101.4,22.7 138.2,56.8 v 0 c -36.8,-34.1 -85.4,-55.1 -138.2,-56.8"
        style="fill: #d48a8f; fill-opacity: 1; fill-rule: nonzero; stroke: none"
        id="path812"
      />
      <path
        d="m 10968.3,12675.3 v 0 c 9.1,8.3 17.4,17.5 24.9,27.3 -7.5,-9.8 -15.8,-19 -24.9,-27.3"
        style="fill: #905a80; fill-opacity: 1; fill-rule: nonzero; stroke: none"
        id="path814"
      />
      <path
        d="m 9813.08,12926.1 -117.61,526.6 v 0 0 l 117.62,-526.6 h -0.01"
        style="fill: #d4cbde; fill-opacity: 1; fill-rule: nonzero; stroke: none"
        id="path816"
      />
      <path
        d="m 9989.67,12628 c -71.62,22.3 -128.19,81.4 -145.22,157.6 l -31.37,140.5 h 0.01 l 31.37,-140.5 c 17.04,-76.2 73.6,-135.3 145.21,-157.6"
        style="fill: #d48a8f; fill-opacity: 1; fill-rule: nonzero; stroke: none"
        id="path818"
      />
      <path
        d="m 10993.5,12703 c 0.1,0.1 0.2,0.3 0.3,0.4 -0.1,-0.1 -0.2,-0.3 -0.3,-0.4 m 0.8,1 c 0,0.1 0.1,0.2 0.2,0.3 -0.1,-0.1 -0.2,-0.2 -0.2,-0.3 m 0.6,0.9 c 0.1,0.1 0.2,0.2 0.2,0.3 0,-0.1 -0.1,-0.2 -0.2,-0.3 m 0.7,1 c 0.1,0 0.1,0.1 0.2,0.1 -0.1,0 -0.1,-0.1 -0.2,-0.1 m 0.8,0.9 v 0.1 -0.1"
        style="fill: #905a80; fill-opacity: 1; fill-rule: nonzero; stroke: none"
        id="path820"
      />
      <!-- <path
         d="m 10823.1,12618.4 h -769.9 c -21.9,0 -43.2,3.3 -63.23,9.5 -0.01,0 -0.03,0.1 -0.05,0.1 -0.08,0 -0.16,0 -0.25,0 -71.61,22.3 -128.17,81.4 -145.21,157.6 l -31.37,140.5 -117.62,526.6 v 0 c -29.84,133.6 71.79,260.5 208.7,260.5 h 1.19 c 40.56,-527.5 481.34,-942.8 1019.14,-942.8 35.4,0 70.4,1.9 104.9,5.4 -6.9,-25.3 -18.3,-48.5 -33,-68.9 v -0.1 c -0.2,-0.2 -0.4,-0.5 -0.6,-0.8 -0.1,0 -0.1,-0.1 -0.2,-0.1 -0.1,-0.3 -0.3,-0.5 -0.5,-0.7 0,-0.1 -0.1,-0.2 -0.2,-0.3 -0.1,-0.2 -0.3,-0.4 -0.4,-0.6 -0.1,-0.1 -0.2,-0.2 -0.2,-0.3 -0.2,-0.2 -0.3,-0.4 -0.5,-0.6 -0.1,-0.1 -0.2,-0.3 -0.3,-0.4 -0.1,-0.2 -0.2,-0.3 -0.3,-0.4 -7.5,-9.8 -15.8,-19 -24.9,-27.3 -36.8,-34.1 -85.4,-55.1 -138.2,-56.8 v 0 c -0.4,0 -0.7,0 -1.1,0 0,0 0,0 -0.1,0 -0.3,0 -0.7,0 -1.1,0 v 0 c -0.8,-0.1 -1.6,-0.1 -2.3,-0.1 h -0.1 c -0.3,0 -0.7,0 -1,0 -0.1,0 -0.1,0 -0.1,0 -0.4,0 -0.8,0 -1.2,0"
         style="fill:#d4daee;fill-opacity:1;fill-rule:nonzero;stroke:none"
         id="path822" /> -->
    </g>
  </g>
</svg>
