<svg xmlns="http://www.w3.org/2000/svg" width="27.39" height="23.528" viewBox="0 0 27.39 23.528">
    <path fill="#42526e" stroke="#42526e" d="M11.253 15A2.255 2.255 0 0 0 9 17.253V35.6a1.933 1.933 0 0 0 1.931 1.931h22.528A1.933 1.933 0 0 0 35.39 35.6V20.8a1.933 1.933 0 0 0-1.931-1.931h-1.931v-3.54a.335.335 0 0 0-.322-.329zm0 .644h19.631v3.218H11.253a1.609 1.609 0 1 1 0-3.218zm-1.609 3.178a2.243 2.243 0 0 0 1.609.684h22.206a1.277 1.277 0 0 1 1.287 1.287v4.184h-9.655a1.291 1.291 0 0 0-1.291 1.287v3.862a1.291 1.291 0 0 0 1.287 1.287h9.655V35.6a1.277 1.277 0 0 1-1.287 1.287H10.931A1.277 1.277 0 0 1 9.644 35.6zm15.448 6.8h9.655v5.149h-9.656a.635.635 0 0 1-.644-.644v-3.863a.635.635 0 0 1 .644-.644zm3.217 1.278a1.287 1.287 0 1 0 1.291 1.285 1.291 1.291 0 0 0-1.291-1.285zm0 .644a.644.644 0 1 1-.644.644.639.639 0 0 1 .644-.647z" transform="translate(-8.5 -14.5)"/>
</svg>
