<svg xmlns="http://www.w3.org/2000/svg" width="26" height="26" viewBox="0 0 26 26">
    <defs>
        <clipPath id="clip-path">
            <path id="_Icon_Сolor" d="M15 6H3.135l3.633-4.36A1 1 0 0 0 5.232.36l-5 6a.942.942 0 0 0-.088.154.947.947 0 0 0-.071.124A.985.985 0 0 0 0 7a.985.985 0 0 0 .072.358.947.947 0 0 0 .071.124.942.942 0 0 0 .088.154l5 6a1 1 0 0 0 1.536-1.28L3.135 8H15a1 1 0 0 0 0-2" transform="translate(4 5)"/>
        </clipPath>
    </defs>
    <g id="Group_23300" transform="translate(-266 -100)">
        <g id="Rectangle_6168" fill="none" stroke="#6b778c" transform="translate(266 100)">
            <rect width="26" height="26" stroke="none" rx="4"/>
            <rect width="25" height="25" x=".5" y=".5" rx="3.5"/>
        </g>
        <g id="_27_Icon_arrow-left" transform="translate(267 101)">
            <g id="Group_141">
                <path id="_Icon_Сolor-2" d="M15 6H3.135l3.633-4.36A1 1 0 0 0 5.232.36l-5 6a.942.942 0 0 0-.088.154.947.947 0 0 0-.071.124A.985.985 0 0 0 0 7a.985.985 0 0 0 .072.358.947.947 0 0 0 .071.124.942.942 0 0 0 .088.154l5 6a1 1 0 0 0 1.536-1.28L3.135 8H15a1 1 0 0 0 0-2" transform="translate(4 5)"/>
            </g>
        </g>
    </g>
</svg>
