<svg
  xmlns="http://www.w3.org/2000/svg"
  width="32"
  height="32"
  viewBox="8 8 32 32"
>
  <rect width="16" height="16" fill="white" transform="translate(16, 16)" />
  <path
    id="np_wrong_2721404_000000"
    fill="#e51656"
    fill-rule="evenodd"
    d="M8.75 23.75a15 15 0 1 1 15 15 15 15 0 0 1-15-15zm8.677-6.323a2.113 2.113 0 0 1 2.98 0l3.343 3.343 3.342-3.342a2.107 2.107 0 0 1 2.98 2.98L26.73 23.75l3.342 3.342a2.107 2.107 0 0 1-2.98 2.98L23.75 26.73l-3.342 3.342a2.107 2.107 0 0 1-2.98-2.98l3.342-3.342-3.342-3.342a2.113 2.113 0 0 1-.001-2.981z"
  />
</svg>
