<svg xmlns="http://www.w3.org/2000/svg" width="70.493" height="58.842" viewBox="0 0 70.493 58.842">
    <defs>
        <style>
            .cls-2{fill:#cacbda}.cls-4{fill:#fff}
        </style>
    </defs>
    <g id="Group_23387" transform="translate(-284 -588.158)">
        <g id="np_card_887963_000000" transform="translate(288 588.158)">
            <path id="Path_18938" fill="#e4e5ec" d="M20904.365-3080.217l42.188.548 3.605.663 1.293 3.1v25.777h6.2l1.727-1.83.9-3.414v-29.127l-.9-2.178-3.062-1.662h-48.57a6.064 6.064 0 0 0-3.105 2.913c-.846 2.027-.276 5.21-.276 5.21z" transform="translate(-20894.801 3089.414)"/>
            <path id="Path_18934" d="M20.957 59.168h-2.374a4.764 4.764 0 0 0-4.751 4.751v2.374a4.764 4.764 0 0 0 4.751 4.751h2.374a4.764 4.764 0 0 0 4.751-4.751v-2.374a4.764 4.764 0 0 0-4.751-4.751zm2.377 7.125a2.381 2.381 0 0 1-2.374 2.374h-2.374a2.381 2.381 0 0 1-2.374-2.374v-2.374a2.381 2.381 0 0 1 2.374-2.374h2.374a2.381 2.381 0 0 1 2.374 2.374z" class="cls-2" transform="translate(-6.354 -28.293)"/>
            <path id="Path_18935" d="M37.168 62.832h26.718v2.374H37.168z" class="cls-2" transform="translate(-13.064 -29.346)"/>
            <path id="Path_18936" d="M37.168 69.5h20.781v2.374H37.168z" class="cls-2" transform="translate(-13.064 -31.263)"/>
            <path id="Path_18937" d="M63.893 15.832H17.582a5.879 5.879 0 0 0-5.936 5.936v2.374H9.272a5.879 5.879 0 0 0-5.936 5.936v28.5a5.879 5.879 0 0 0 5.936 5.936h46.31a5.879 5.879 0 0 0 5.936-5.936v-2.372h2.374a5.879 5.879 0 0 0 5.936-5.936v-28.5a5.877 5.877 0 0 0-5.936-5.939zM9.272 26.519h46.31a3.5 3.5 0 0 1 3.562 3.562v3.562H5.71v-3.562a3.5 3.5 0 0 1 3.562-3.562zm46.31 35.623H9.272A3.5 3.5 0 0 1 5.71 58.58V40.768h53.435V58.58a3.5 3.5 0 0 1-3.562 3.562zM67.455 50.27a3.5 3.5 0 0 1-3.562 3.562h-2.374V30.084a5.879 5.879 0 0 0-5.936-5.936H14.021v-2.377a3.5 3.5 0 0 1 3.562-3.562h46.31a3.5 3.5 0 0 1 3.562 3.562z" class="cls-2" transform="translate(-3.336 -15.832)"/>
        </g>
        <g id="Group_23159" transform="translate(247 -801.26)">
            <path id="Path_18919" fill="#cacbda" d="M-20040.084 10563.111l-.16-12.5 11.686 6.218-.016 12.19z" opacity="0.5" transform="translate(20095 -9133)"/>
            <path id="np_tick_684585_000000" d="M23.6 6.6a17 17 0 1 0 17 17 16.984 16.984 0 0 0-17-17z" class="cls-4" transform="translate(30.398 1407.658)"/>
            <g id="Group_1124" transform="translate(-52 65.26)">
                <circle id="Ellipse_263" cx="10.984" cy="10.984" r="10.984" class="cls-4" transform="translate(95.016 1355.016)"/>
                <path id="np_wrong_2721404_000000" fill="#e51656" fill-rule="evenodd" d="M8.75 23.75a15 15 0 1 1 15 15 15 15 0 0 1-15-15zm8.677-6.323a2.113 2.113 0 0 1 2.98 0l3.343 3.343 3.342-3.342a2.107 2.107 0 0 1 2.98 2.98L26.73 23.75l3.342 3.342a2.107 2.107 0 0 1-2.98 2.98L23.75 26.73l-3.342 3.342a2.107 2.107 0 0 1-2.98-2.98l3.342-3.342-3.342-3.342a2.113 2.113 0 0 1-.001-2.981z" transform="translate(82.25 1342.25)"/>
            </g>
        </g>
    </g>
</svg>
