<svg xmlns="http://www.w3.org/2000/svg" id="np_card_887963_000000" width="66.493" height="48.684" viewBox="0 0 66.493 48.684">
    <defs>
        <style>
            .cls-2{fill:#cacbda}
        </style>
    </defs>
    <path id="Path_18938" fill="#e4e5ec" d="M20904.365-3080.217l42.188.548 3.605.663 1.293 3.1v25.777h6.2l1.727-1.83.9-3.414v-29.127l-.9-2.178-3.062-1.662h-48.57a6.064 6.064 0 0 0-3.105 2.913c-.846 2.027-.276 5.21-.276 5.21z" transform="translate(-20894.801 3089.414)"/>
    <path id="Path_18934" d="M20.957 59.168h-2.374a4.764 4.764 0 0 0-4.751 4.751v2.374a4.764 4.764 0 0 0 4.751 4.751h2.374a4.764 4.764 0 0 0 4.751-4.751v-2.374a4.764 4.764 0 0 0-4.751-4.751zm2.377 7.125a2.381 2.381 0 0 1-2.374 2.374h-2.374a2.381 2.381 0 0 1-2.374-2.374v-2.374a2.381 2.381 0 0 1 2.374-2.374h2.374a2.381 2.381 0 0 1 2.374 2.374z" class="cls-2" transform="translate(-6.354 -28.293)"/>
    <path id="Path_18935" d="M37.168 62.832h26.718v2.374H37.168z" class="cls-2" transform="translate(-13.064 -29.346)"/>
    <path id="Path_18936" d="M37.168 69.5h20.781v2.374H37.168z" class="cls-2" transform="translate(-13.064 -31.263)"/>
    <path id="Path_18937" d="M63.893 15.832H17.582a5.879 5.879 0 0 0-5.936 5.936v2.374H9.272a5.879 5.879 0 0 0-5.936 5.936v28.5a5.879 5.879 0 0 0 5.936 5.936h46.31a5.879 5.879 0 0 0 5.936-5.936v-2.372h2.374a5.879 5.879 0 0 0 5.936-5.936v-28.5a5.877 5.877 0 0 0-5.936-5.939zM9.272 26.519h46.31a3.5 3.5 0 0 1 3.562 3.562v3.562H5.71v-3.562a3.5 3.5 0 0 1 3.562-3.562zm46.31 35.623H9.272A3.5 3.5 0 0 1 5.71 58.58V40.768h53.435V58.58a3.5 3.5 0 0 1-3.562 3.562zM67.455 50.27a3.5 3.5 0 0 1-3.562 3.562h-2.374V30.084a5.879 5.879 0 0 0-5.936-5.936H14.021v-2.377a3.5 3.5 0 0 1 3.562-3.562h46.31a3.5 3.5 0 0 1 3.562 3.562z" class="cls-2" transform="translate(-3.336 -15.832)"/>
</svg>
