<svg xmlns="http://www.w3.org/2000/svg" width="25.669" height="17.495" viewBox="0 0 25.669 17.495">
    <path fill="#42526e" d="M2390.068 837.582a3.1 3.1 0 0 1-3.068-3.126v-11.243a3.1 3.1 0 0 1 3.068-3.126h19.532a3.1 3.1 0 0 1 3.068 3.126v11.242a3.1 3.1 0 0 1-3.068 3.126zm-1.371-3.126a1.385 1.385 0 0 0 1.371 1.4h19.532a1.385 1.385 0 0 0 1.37-1.4v-7.534h-22.27zm0-11.242v1.242h22.273v-1.241a1.385 1.385 0 0 0-1.37-1.4h-19.532a1.385 1.385 0 0 0-1.368 1.398zm17.03 10.593a2.086 2.086 0 0 1-1.285.442 2.161 2.161 0 0 1 0-4.322 2.088 2.088 0 0 0 2.57 0 2.161 2.161 0 0 1 0 4.322 2.085 2.085 0 0 1-1.284-.443zm-14.923.442a.3.3 0 0 1-.3-.307v-.934a.3.3 0 0 1 .3-.307h4.648a.3.3 0 0 1 .3.307v.934a.3.3 0 0 1-.3.307z" transform="translate(-2387 -820.087)"/>
</svg>
