<svg xmlns="http://www.w3.org/2000/svg" id="_27_Icon_browser" width="24" height="24" viewBox="0 0 24 24">
    <defs>
        <clipPath id="clip-path">
            <path id="_Icon_Сolor" d="M15 18H3a3 3 0 0 1-3-3V3a3 3 0 0 1 3-3h12a3 3 0 0 1 3 3v12a3 3 0 0 1-3 3zM2 8v7a1 1 0 0 0 1 1h12a1 1 0 0 0 1-1V8zm1-6a1 1 0 0 0-1 1v3h14V3a1 1 0 0 0-1-1zm6 3a1 1 0 1 1 1-1 1 1 0 0 1-1 1zM5 5a1 1 0 1 1 1-1 1 1 0 0 1-1 1z" class="cls-1"/>
        </clipPath>
        <style>
            .cls-1{fill:#42526e}
        </style>
    </defs>
    <g id="Group_214" transform="translate(3 3)">
        <path id="_Icon_Сolor-2" d="M15 18H3a3 3 0 0 1-3-3V3a3 3 0 0 1 3-3h12a3 3 0 0 1 3 3v12a3 3 0 0 1-3 3zM2 8v7a1 1 0 0 0 1 1h12a1 1 0 0 0 1-1V8zm1-6a1 1 0 0 0-1 1v3h14V3a1 1 0 0 0-1-1zm6 3a1 1 0 1 1 1-1 1 1 0 0 1-1 1zM5 5a1 1 0 1 1 1-1 1 1 0 0 1-1 1z" class="cls-1"/>
    </g>
</svg>
