<svg xmlns="http://www.w3.org/2000/svg" id="_27_Icon_edit" width="20" height="20" viewBox="0 0 20 20">
    <defs>
        <clipPath id="clip-path">
            <path id="_Icon_Сolor" d="M.75 11.978A.75.75 0 0 1 0 11.16l.287-3.125a1.48 1.48 0 0 1 .428-.91L7.462.38A1.348 1.348 0 0 1 8.429 0 1.522 1.522 0 0 1 9.5.432l2.053 2.052A1.444 1.444 0 0 1 11.6 4.52l-6.744 6.744a1.478 1.478 0 0 1-.911.426l-3.127.285c-.018.002-.042.003-.068.003zm5.238-8L1.775 8.184l-.2 2.216 2.232-.2 4.2-4.2-2.019-2.026zm2.466-2.47L6.993 2.97l2.021 2.02 1.461-1.461-2.021-2.021z" class="cls-1" transform="translate(0 0)"/>
        </clipPath>
        <style>
            .cls-1{fill:#2a18c0}
        </style>
    </defs>
    <g id="Group_149" transform="translate(3.999 4.022)">
        <path id="_Icon_Сolor-2" d="M.75 11.978A.75.75 0 0 1 0 11.16l.287-3.125a1.48 1.48 0 0 1 .428-.91L7.462.38A1.348 1.348 0 0 1 8.429 0 1.522 1.522 0 0 1 9.5.432l2.053 2.052A1.444 1.444 0 0 1 11.6 4.52l-6.744 6.744a1.478 1.478 0 0 1-.911.426l-3.127.285c-.018.002-.042.003-.068.003zm5.238-8L1.775 8.184l-.2 2.216 2.232-.2 4.2-4.2-2.019-2.026zm2.466-2.47L6.993 2.97l2.021 2.02 1.461-1.461-2.021-2.021z" class="cls-1" transform="translate(0 0)"/>
    </g>
</svg>
