<svg xmlns="http://www.w3.org/2000/svg" width="16" height="20" viewBox="0 0 16 20">
    <defs>
        <clipPath id="clip-path">
            <path id="_Icon_Сolor" d="M13.444 20H2.555A2.531 2.531 0 0 1 0 17.5v-15A2.531 2.531 0 0 1 2.555 0h7a1 1 0 0 1 .745.328l5.444 6A1 1 0 0 1 16 7v10.5a2.531 2.531 0 0 1-2.556 2.5zM2.555 2A.531.531 0 0 0 2 2.5v15a.531.531 0 0 0 .555.5h10.889a.531.531 0 0 0 .556-.5V8h-3.286A2.788 2.788 0 0 1 8 5.15V2zM10 2.978V5.15a.792.792 0 0 0 .714.85h2.029zM11 16H5a1 1 0 0 1 0-2h6a1 1 0 1 1 0 2zm-3-4H5a1 1 0 1 1 0-2h3a1 1 0 0 1 0 2z" class="cls-1" transform="translate(4 2)"/>
        </clipPath>
        <style>
            .cls-1{fill:#42526e}
        </style>
    </defs>
    <g id="Group_14312" transform="translate(-4 -2)">
        <path id="_Icon_Сolor-2" d="M13.444 20H2.555A2.531 2.531 0 0 1 0 17.5v-15A2.531 2.531 0 0 1 2.555 0h7a1 1 0 0 1 .745.328l5.444 6A1 1 0 0 1 16 7v10.5a2.531 2.531 0 0 1-2.556 2.5zM2.555 2A.531.531 0 0 0 2 2.5v15a.531.531 0 0 0 .555.5h10.889a.531.531 0 0 0 .556-.5V8h-3.286A2.788 2.788 0 0 1 8 5.15V2zM10 2.978V5.15a.792.792 0 0 0 .714.85h2.029zM11 16H5a1 1 0 0 1 0-2h6a1 1 0 1 1 0 2zm-3-4H5a1 1 0 1 1 0-2h3a1 1 0 0 1 0 2z" class="" transform="translate(4 2)"/>
    </g>
</svg>
