<svg xmlns="http://www.w3.org/2000/svg" width="21.649" height="17.995" viewBox="0 0 21.649 17.995">
    <defs>
        <style>
            .cls-1{fill:#594430}
        </style>
    </defs>
    <g id="Group_23385" transform="translate(-2.462 -10.5)">
        <path id="Path_45683" d="M18.006 38.959a7.305 7.305 0 0 1-12.028-5.581v-.456h1.048a.755.755 0 0 0 .638-1.162L5.773 28.8a.789.789 0 0 0-1.276 0l-1.913 2.961a.73.73 0 0 0-.023.774.786.786 0 0 0 .661.387H4.27v.456a9 9 0 0 0 14.806 6.879.815.815 0 0 0 .091-1.184.806.806 0 0 0-1.161-.114z" class="cls-1" transform="translate(0 -13.881)"/>
        <path id="Path_45684" d="M40.083 20.34a.739.739 0 0 0-.661-.387h-1.048V19.5a9 9 0 0 0-14.806-6.879.84.84 0 0 0 1.093 1.276 7.305 7.305 0 0 1 12.027 5.581v.456h-1.047A.755.755 0 0 0 35 21.092l1.891 2.961a.733.733 0 0 0 .638.342.788.788 0 0 0 .638-.342l1.891-2.961a.737.737 0 0 0 .025-.752z" class="cls-1" transform="translate(-16.064)"/>
    </g>
</svg>
