<svg xmlns="http://www.w3.org/2000/svg" id="_27_Icon_question-mark-circle" width="24" height="24" viewBox="0 0 24 24">
    <defs>
        <clipPath id="clip-path">
            <path id="_Icon_Сolor" d="M10 20a10 10 0 1 1 10-10 10.011 10.011 0 0 1-10 10zm0-18a8 8 0 1 0 8 8 8.009 8.009 0 0 0-8-8zm0 14a1 1 0 1 1 1-1 1 1 0 0 1-1 1zm0-3a1 1 0 0 1-1-1v-2a1 1 0 0 1 1-1 1.5 1.5 0 1 0-1.5-1.5 1 1 0 0 1-2 0 3.5 3.5 0 1 1 4.5 3.337V12a1 1 0 0 1-1 1z" class="cls-1"/>
        </clipPath>
        <style>
            .cls-1{fill:#2917bf}
        </style>
    </defs>
    <g id="Group_146" transform="translate(2 2)">
        <path id="_Icon_Сolor-2" d="M10 20a10 10 0 1 1 10-10 10.011 10.011 0 0 1-10 10zm0-18a8 8 0 1 0 8 8 8.009 8.009 0 0 0-8-8zm0 14a1 1 0 1 1 1-1 1 1 0 0 1-1 1zm0-3a1 1 0 0 1-1-1v-2a1 1 0 0 1 1-1 1.5 1.5 0 1 0-1.5-1.5 1 1 0 0 1-2 0 3.5 3.5 0 1 1 4.5 3.337V12a1 1 0 0 1-1 1z" class="cls-1"/>
    </g>
</svg>
