<svg xmlns="http://www.w3.org/2000/svg" id="np_card_887963_000000" width="21.876" height="16.017" viewBox="0 0 21.876 16.017">
    <defs>
        <style>
            .cls-2{fill:#17533a}
        </style>
    </defs>
    <path id="Path_18938" fill="#eaf7f2" d="M20904.238-3085.669l13.879.18 1.186.218.426 1.019v8.48h2.039l.57-.6.295-1.123v-9.583l-.295-.717-1.006-.547h-15.982a1.985 1.985 0 0 0-1.02.958 3.738 3.738 0 0 0-.092 1.715z" transform="translate(-20901.092 3088.695)"/>
    <path id="Path_18934" d="M16.176 59.168h-.781a1.567 1.567 0 0 0-1.563 1.563v.781a1.567 1.567 0 0 0 1.563 1.563h.781a1.567 1.567 0 0 0 1.563-1.563v-.781a1.567 1.567 0 0 0-1.563-1.563zm.782 2.344a.783.783 0 0 1-.781.781H15.4a.783.783 0 0 1-.781-.781v-.781a.783.783 0 0 1 .781-.781h.781a.783.783 0 0 1 .781.781z" class="cls-2" transform="translate(-11.372 -49.01)"/>
    <path id="Path_18935" d="M37.168 62.832h8.79v.781h-8.79z" class="cls-2" transform="translate(-29.238 -51.815)"/>
    <path id="Path_18936" d="M37.168 69.5H44v.781h-6.832z" class="cls-2" transform="translate(-29.238 -56.92)"/>
    <path id="Path_18937" d="M23.259 15.832H8.023a1.934 1.934 0 0 0-1.953 1.953v.781h-.781a1.934 1.934 0 0 0-1.953 1.954v9.38a1.934 1.934 0 0 0 1.953 1.953h15.236a1.934 1.934 0 0 0 1.953-1.953v-.781h.781a1.934 1.934 0 0 0 1.953-1.953v-9.38a1.934 1.934 0 0 0-1.953-1.954zm-17.97 3.516h15.236A1.151 1.151 0 0 1 21.7 20.52v1.172H4.117V20.52a1.151 1.151 0 0 1 1.172-1.172zm15.236 11.72H5.289A1.151 1.151 0 0 1 4.117 29.9v-5.86H21.7v5.86a1.151 1.151 0 0 1-1.175 1.168zm3.906-3.906a1.151 1.151 0 0 1-1.172 1.172h-.781v-7.813a1.934 1.934 0 0 0-1.953-1.953H6.851v-.781a1.151 1.151 0 0 1 1.172-1.172h15.236a1.151 1.151 0 0 1 1.172 1.172z" class="cls-2" transform="translate(-3.336 -15.832)"/>
</svg>
