<svg xmlns="http://www.w3.org/2000/svg" width="16" height="16" viewBox="0 0 16 16">
    <path fill="#e8414f" d="M-6507-5288.9a8.01 8.01 0 0 1 8-8 8.01 8.01 0 0 1 8 8 8.009 8.009 0 0 1-8 8 8.009 8.009 0 0 1-8-8zm1.5 0a6.509 6.509 0 0 0 6.5 6.5 6.509 6.509 0 0 0 6.5-6.5 6.509 6.509 0 0 0-6.5-6.5 6.509 6.509 0 0 0-6.5 6.5zm6.251.958l-1.945 1.945-1.06-1.062 1.944-1.944-1.944-1.944 1.06-1.062 1.945 1.945 1.945-1.945 1.06 1.062-1.944 1.944 1.944 1.944-1.06 1.062z" transform="translate(6507 5296.897)"/>
</svg>
