<svg xmlns="http://www.w3.org/2000/svg" width="69.694" height="62.712" viewBox="0 0 69.694 62.712">
    <defs>
        <style>
            .cls-1,.cls-2{fill:#cacbda}.cls-1{stroke:#fff;stroke-width:.5px}.cls-2{opacity:.5}
        </style>
    </defs>
    <g id="Group_23159" transform="translate(-37 -1385.548)">
        <g id="np_money_2796496_000000" transform="translate(39 1385.798)">
            <path id="Path_18910" d="M9.289 49.628l12.391 6.457V54L8.241 47a1.13 1.13 0 1 1 1.049-2l12.391 6.46v-2.235l-13.44-7a1.131 1.131 0 1 1 1.049-2l12.391 6.445v-2.1L8.47 37.7a1.134 1.134 0 0 1 .024-2.017L29.07 25.505a1.1 1.1 0 0 1 1 0L74.384 47.16a1.137 1.137 0 0 1 0 2.041L52.227 59.964a1.082 1.082 0 0 1-.49.114 1.11 1.11 0 0 1-.52-.131L36.92 52.5v2.1l14.838 7.727 21.649-10.508a1.129 1.129 0 0 1 .977 2.035l-22.16 10.762a1.082 1.082 0 0 1-.49.114 1.11 1.11 0 0 1-.52-.131l-14.3-7.449v2.226L51.755 67.1 73.4 56.594a1.108 1.108 0 0 1 1.5.532 1.122 1.122 0 0 1-.52 1.509L52.224 69.389a1.091 1.091 0 0 1-.49.123 1.05 1.05 0 0 1-.52-.137l-14.3-7.443V64l14.838 7.727L73.4 61.229a1.128 1.128 0 0 1 .98 2.032L52.224 74.016a1.019 1.019 0 0 1-.49.123 1.05 1.05 0 0 1-.52-.137l-15.956-8.29L8.24 51.644a1.135 1.135 0 0 1 1.049-2.014zm26.5-.26L54.7 40.06l-10.731-5.247-18.58 9.14zm-6.208-21.586L11.5 36.717l11.4 5.937 18.49-9.1zm22.168 29.9l19.554-9.5-14.029-6.861L38.3 50.662zm-19.918-7.83c-.009-.009-.024-.009-.03-.015l-7.856-4.085v11.5l10.7 5.576v-11.5z" class="cls-1" transform="translate(-7.63 -13.213)"/>
            <path id="Path_18911" d="M29.167 24.617c-9.134 0-16.034-3.26-16.034-7.572s6.893-7.572 16.034-7.572 16.04 3.26 16.04 7.572-6.9 7.572-16.04 7.572zm0-12.882c-8.115 0-13.769 2.8-13.769 5.31s5.653 5.31 13.769 5.31 13.769-2.8 13.769-5.31-5.65-5.31-13.769-5.31z" class="cls-1" transform="translate(17.974 -9.473)"/>
            <path id="Path_18912" d="M13.458 27.5a1.132 1.132 0 1 1 2.065-.926c.78 1.73 6.233 3.6 13.691 3.6s12.915-1.873 13.7-3.61a1.134 1.134 0 0 1 2.068.932c-1.539 3.4-9.248 4.951-15.768 4.951S14.979 30.894 13.457 27.5z" class="cls-1" transform="translate(17.928 -13.334)"/>
            <path id="Path_18913" d="M13.356 36.907a1.128 1.128 0 0 1 1.124-1.132c7.458 0 12.912-1.873 13.7-3.619a1.147 1.147 0 0 1 1.506-.559 1.135 1.135 0 0 1 .568 1.5c-1.539 3.4-9.248 4.948-15.768 4.948a1.132 1.132 0 0 1-1.13-1.138z" class="cls-1" transform="translate(32.656 -14.65)"/>
            <path id="Path_18914" d="M14.49 42.614a1.13 1.13 0 0 1-.167-2.247c4.751-.711 6.571-1.921 6.861-2.447A1.133 1.133 0 0 1 23.173 39c-1.147 2.089-5.262 3.114-8.513 3.6-.063.006-.117.006-.17.006z" class="cls-1" transform="translate(39.697 -16.021)"/>
            <path id="Path_18915" d="M17.319 43.291a1.134 1.134 0 0 1 1.865 1.291c-.627.9-2.071 1.623-4.419 2.187a1.032 1.032 0 0 1-.269.03 1.132 1.132 0 0 1-.269-2.232c2.624-.633 3.078-1.246 3.093-1.276z" class="cls-1" transform="translate(43.624 -17.308)"/>
            <path id="Path_18916" d="M47.168 44.239c-.412 1 1.363 2.683 3.965 3.762s5.047 1.144 5.462.146-1.36-2.683-3.962-3.762-5.05-1.144-5.465-.146" class="cls-1" transform="translate(-19.465 -17.479)"/>
        </g>
        <path id="Path_18919" d="M-20040.084 10563.111l-.16-12.5 11.686 6.218-.016 12.19z" class="cls-2" transform="translate(20095 -9133)"/>
        <path id="Subtraction_2" d="M20105.666-9124h-.666v-7.988h.666c7.75 0 14.053 1.794 14.053 4s-6.303 3.988-14.053 3.988z" class="cls-2" transform="translate(-20021.719 10521)"/>
        <path id="Path_18920" d="M-20028.082 10555.537l-12.109-6.37 19.6-9.706 12.531 6.021-16.006 8.038z" class="cls-2" transform="translate(20095.744 -9132.918)"/>
        <path id="np_tick_684585_000000" fill="#fff" d="M23.6 6.6a17 17 0 1 0 17 17 16.984 16.984 0 0 0-17-17z" transform="translate(30.398 1407.658)"/>
        <path id="np_tick_684585_000000-2" fill="#07c381" d="M21.6 6.6a15 15 0 1 0 15 15 14.986 14.986 0 0 0-15-15zm7.26 11.891l-8.882 8.849a1.364 1.364 0 0 1-.968.414 1.307 1.307 0 0 1-.968-.414l-4.389-4.356a1.393 1.393 0 0 1 1.97-1.97L19.01 24.4l7.881-7.881a1.376 1.376 0 0 1 1.97 0 1.442 1.442 0 0 1 0 1.97z" transform="translate(32.398 1409.658)"/>
    </g>
</svg>
