<svg xmlns="http://www.w3.org/2000/svg" id="_27_Icon_cloud-upload-fill" width="42" height="42" viewBox="0 0 42 42">
    <defs>
        <clipPath id="clip-path">
            <path id="_Icon_Сolor" d="M17.1 32.941V21.32l-2.48 2.594a1.8 1.8 0 0 1-2.686-.05 2.181 2.181 0 0 1 .046-2.911l5.7-5.965a1.8 1.8 0 0 1 2.664.026l5.7 6.176a2.18 2.18 0 0 1 0 2.913 1.8 1.8 0 0 1-2.686 0L20.9 21.44v11.5a1.906 1.906 0 1 1-3.8 0zm5.7-4.117v-2.609a3.569 3.569 0 0 0 1.9.548 3.634 3.634 0 0 0 2.688-1.206 4.37 4.37 0 0 0 0-5.822l-5.7-6.176a3.6 3.6 0 0 0-5.32-.059l-5.706 5.97a4.37 4.37 0 0 0-.092 5.822 3.688 3.688 0 0 0 2.736 1.26A3.551 3.551 0 0 0 15.2 26v2.822H9.5a9.251 9.251 0 0 1-7.6-4.169c-.029-.035-.075-.05-.1-.091s-.06-.113-.094-.169c-.1-.148-.173-.308-.26-.46A10.806 10.806 0 0 1 .879 22.8c-.079-.2-.156-.4-.229-.6A11.057 11.057 0 0 1 .306 21c-.046-.2-.1-.389-.132-.593a10.47 10.47 0 0 1 .01-3.862c.043-.237.123-.46.181-.691A11.188 11.188 0 0 1 .7 14.69c.1-.269.229-.511.347-.767.147-.315.287-.624.462-.919.15-.258.325-.491.494-.73.186-.259.371-.515.578-.756s.4-.43.614-.636.451-.428.694-.621a8.511 8.511 0 0 1 .7-.5 8.837 8.837 0 0 1 .819-.482 8.266 8.266 0 0 1 .752-.352 8.362 8.362 0 0 1 .949-.321 7.654 7.654 0 0 1 .773-.193c.115-.022.221-.069.337-.085A11.546 11.546 0 0 1 19 0a11.545 11.545 0 0 1 10.783 8.327c.115.017.224.063.337.085a7.654 7.654 0 0 1 .773.193 8.451 8.451 0 0 1 .947.321 7.858 7.858 0 0 1 .752.352 8.837 8.837 0 0 1 .819.482 8.255 8.255 0 0 1 .7.5c.241.193.469.4.693.621s.421.408.616.636.392.5.576.756c.171.239.344.472.5.73.173.295.313.6.46.919.118.256.25.5.347.767a10.406 10.406 0 0 1 .335 1.16c.056.232.137.454.18.691a10.471 10.471 0 0 1 .01 3.862c-.034.2-.085.395-.13.593a11.065 11.065 0 0 1-.345 1.2c-.072.2-.145.4-.229.6a10.794 10.794 0 0 1-.568 1.134c-.089.152-.164.311-.26.46-.036.056-.06.115-.1.169s-.072.056-.1.091a9.254 9.254 0 0 1-7.6 4.169z" class="cls-1"/>
        </clipPath>
        <style>
            .cls-1{fill:#6b778c}
        </style>
    </defs>
    <g id="Group_475" transform="translate(2 4)">
        <path id="_Icon_Сolor-2" d="M17.1 32.941V21.32l-2.48 2.594a1.8 1.8 0 0 1-2.686-.05 2.181 2.181 0 0 1 .046-2.911l5.7-5.965a1.8 1.8 0 0 1 2.664.026l5.7 6.176a2.18 2.18 0 0 1 0 2.913 1.8 1.8 0 0 1-2.686 0L20.9 21.44v11.5a1.906 1.906 0 1 1-3.8 0zm5.7-4.117v-2.609a3.569 3.569 0 0 0 1.9.548 3.634 3.634 0 0 0 2.688-1.206 4.37 4.37 0 0 0 0-5.822l-5.7-6.176a3.6 3.6 0 0 0-5.32-.059l-5.706 5.97a4.37 4.37 0 0 0-.092 5.822 3.688 3.688 0 0 0 2.736 1.26A3.551 3.551 0 0 0 15.2 26v2.822H9.5a9.251 9.251 0 0 1-7.6-4.169c-.029-.035-.075-.05-.1-.091s-.06-.113-.094-.169c-.1-.148-.173-.308-.26-.46A10.806 10.806 0 0 1 .879 22.8c-.079-.2-.156-.4-.229-.6A11.057 11.057 0 0 1 .306 21c-.046-.2-.1-.389-.132-.593a10.47 10.47 0 0 1 .01-3.862c.043-.237.123-.46.181-.691A11.188 11.188 0 0 1 .7 14.69c.1-.269.229-.511.347-.767.147-.315.287-.624.462-.919.15-.258.325-.491.494-.73.186-.259.371-.515.578-.756s.4-.43.614-.636.451-.428.694-.621a8.511 8.511 0 0 1 .7-.5 8.837 8.837 0 0 1 .819-.482 8.266 8.266 0 0 1 .752-.352 8.362 8.362 0 0 1 .949-.321 7.654 7.654 0 0 1 .773-.193c.115-.022.221-.069.337-.085A11.546 11.546 0 0 1 19 0a11.545 11.545 0 0 1 10.783 8.327c.115.017.224.063.337.085a7.654 7.654 0 0 1 .773.193 8.451 8.451 0 0 1 .947.321 7.858 7.858 0 0 1 .752.352 8.837 8.837 0 0 1 .819.482 8.255 8.255 0 0 1 .7.5c.241.193.469.4.693.621s.421.408.616.636.392.5.576.756c.171.239.344.472.5.73.173.295.313.6.46.919.118.256.25.5.347.767a10.406 10.406 0 0 1 .335 1.16c.056.232.137.454.18.691a10.471 10.471 0 0 1 .01 3.862c-.034.2-.085.395-.13.593a11.065 11.065 0 0 1-.345 1.2c-.072.2-.145.4-.229.6a10.794 10.794 0 0 1-.568 1.134c-.089.152-.164.311-.26.46-.036.056-.06.115-.1.169s-.072.056-.1.091a9.254 9.254 0 0 1-7.6 4.169z" class="cls-1"/>
    </g>
</svg>
